<svg width="30" height="24" viewBox="0 0 30 24" fill="none" xmlns="http://www.w3.org/2000/svg">
<path d="M28.9286 1.24682e-06H21.2679C19.6239 1.24682e-06 18.0167 0.481641 16.6339 1.39027L15 2.45944L13.3661 1.39027C11.9846 0.481815 10.3757 -0.000895374 8.73214 1.24682e-06H1.07143C0.478795 1.24682e-06 0 0.488473 0 1.09308V20.4953C0 21.0999 0.478795 21.5884 1.07143 21.5884H8.73214C10.3761 21.5884 11.9833 22.07 13.3661 22.9787L14.8527 23.9556C14.8962 23.9829 14.9464 24 14.9967 24C15.0469 24 15.0971 23.9863 15.1406 23.9556L16.6272 22.9787C18.0134 22.07 19.6239 21.5884 21.2679 21.5884H28.9286C29.5212 21.5884 30 21.0999 30 20.4953V1.09308C30 0.488473 29.5212 1.24682e-06 28.9286 1.24682e-06ZM8.73214 19.129H2.41071V2.45944H8.73214C9.91741 2.45944 11.0692 2.80444 12.0636 3.45688L13.6975 4.52605L13.9286 4.67976V20.4611C12.3348 19.5867 10.5536 19.129 8.73214 19.129ZM27.5893 19.129H21.2679C19.4464 19.129 17.6652 19.5867 16.0714 20.4611V4.67976L16.3025 4.52605L17.9364 3.45688C18.9308 2.80444 20.0826 2.45944 21.2679 2.45944H27.5893V19.129ZM11.1462 6.83177H4.92522C4.79464 6.83177 4.6875 6.94791 4.6875 7.08796V8.62511C4.6875 8.76516 4.79464 8.8813 4.92522 8.8813H11.1429C11.2734 8.8813 11.3806 8.76516 11.3806 8.62511V7.08796C11.3839 6.94791 11.2768 6.83177 11.1462 6.83177ZM18.6161 7.08796V8.62511C18.6161 8.76516 18.7232 8.8813 18.8538 8.8813H25.0714C25.202 8.8813 25.3092 8.76516 25.3092 8.62511V7.08796C25.3092 6.94791 25.202 6.83177 25.0714 6.83177H18.8538C18.7232 6.83177 18.6161 6.94791 18.6161 7.08796ZM11.1462 11.614H4.92522C4.79464 11.614 4.6875 11.7301 4.6875 11.8702V13.4073C4.6875 13.5474 4.79464 13.6635 4.92522 13.6635H11.1429C11.2734 13.6635 11.3806 13.5474 11.3806 13.4073V11.8702C11.3839 11.7301 11.2768 11.614 11.1462 11.614ZM25.0748 11.614H18.8538C18.7232 11.614 18.6161 11.7301 18.6161 11.8702V13.4073C18.6161 13.5474 18.7232 13.6635 18.8538 13.6635H25.0714C25.202 13.6635 25.3092 13.5474 25.3092 13.4073V11.8702C25.3125 11.7301 25.2054 11.614 25.0748 11.614Z" fill="black"/>
</svg>
