<svg width="142" height="250" viewBox="0 0 142 250" fill="none" xmlns="http://www.w3.org/2000/svg">
<path d="M37.4996 0.99C37.4996 0.99 36.7717 33.66 41.4342 44.67C41.4342 44.67 43.9229 49.44 39.4669 65.59C39.4669 65.59 27.663 89.45 39.8013 92.02C39.8013 92.02 51.9397 94.96 49.4117 104.5C49.4117 104.5 41.8277 119.27 68.1898 112.44L58.0777 116.98C58.0777 116.98 54.8317 136.07 68.1898 116.98L64.9339 125.47C64.9339 125.47 68.8685 125.79 69.9899 137.91C69.9899 137.91 79.3838 166.91 118.74 130.57C118.74 130.57 174.71 67.06 110.074 38.06C110.074 38.06 80.4659 38.06 74.6623 65.23C74.6623 65.23 62.0222 98.63 90.5484 121.39C90.5484 121.39 115.819 130.2 128.459 172.78C128.459 172.78 124.524 219.78 110.753 230.78C110.753 230.78 102.815 248.78 108.589 248.78C108.589 248.78 121.593 242.54 101.703 212.78C101.703 212.78 77.505 176.44 24.4267 191.49C24.4267 191.49 10.7735 158.95 1.5468 165.13C1.5468 165.13 -3.90268 185.39 22.725 191.99L4.03546 167.48L13.6852 186.03" stroke="#96A087" stroke-miterlimit="10"/>
<path d="M51.9495 187.9C51.9495 187.9 31.5878 196.9 34.3125 211.62C34.3125 211.62 49.0674 217.8 51.9495 190.09L38.2963 205.01L47.1001 200.01" fill="#96A087"/>
<path d="M59.0712 187.9C59.0712 187.9 33.0731 159.39 50.2675 155.55C50.2675 155.55 63.0551 152.55 59.0712 186.46L48.8018 163.26L56.5629 169.45" fill="#96A087"/>
</svg>
