<svg width="27" height="23" viewBox="0 0 27 23" fill="none" xmlns="http://www.w3.org/2000/svg">
<path d="M3.21094 11.785C5.10344 14.0514 8.06771 13.5969 9.36342 9.41943C10.7933 14.0291 15.1061 14.7066 16.7464 9.41943C17.8957 13.125 20.9092 14.2904 22.8989 11.8556" stroke="#CF3085" stroke-width="1.5" stroke-linecap="round" stroke-linejoin="round"/>
<path d="M22.8989 21.8044V11.8964C22.8989 10.5465 21.7792 9.41946 20.4379 9.41946H5.67199C4.33074 9.41946 3.21099 10.5465 3.21099 11.8964V21.8044M0.75 21.8044H25.3599M6.90248 4.46548V9.41946M13.055 4.46548V9.41946M19.2074 4.46548V9.41946M6.90248 0.75V1.36925M13.055 0.75V1.36925M19.2074 0.75V1.36925" stroke="#CF3085" stroke-width="1.5" stroke-linecap="round" stroke-linejoin="round"/>
</svg>
