<svg width="40" height="40" viewBox="0 0 40 40" fill="none" xmlns="http://www.w3.org/2000/svg">
<path d="M19.9999 12.2217C19.9999 9.16675 17.4999 6.66675 14.4449 6.66675H3.33325V26.6667H14.5133C19.9999 26.6667 19.9999 32.2234 19.9999 32.2234M19.9999 12.2217C19.9999 9.16508 22.4999 6.66675 25.5549 6.66675H36.6666V26.6667H25.5549C19.9999 26.6667 19.9999 32.2234 19.9999 32.2234M19.9999 12.2217V32.2234M23.1249 34.0967C23.4727 33.3765 24.0144 32.7676 24.6892 32.3383C25.364 31.909 26.1452 31.6765 26.9449 31.6667H34.9999M16.8749 34.0967C16.5335 33.3716 15.9933 32.7584 15.3171 32.3282C14.6408 31.898 13.8564 31.6686 13.0549 31.6667H4.99992" stroke="#CF3085" stroke-width="2.5" stroke-miterlimit="10" stroke-linecap="round" stroke-linejoin="round"/>
</svg>
