<svg width="40" height="40" viewBox="0 0 40 40" fill="none" xmlns="http://www.w3.org/2000/svg">
<g clip-path="url(#clip0_665_510)">
<path fill-rule="evenodd" clip-rule="evenodd" d="M21.2109 -0.0390625C23.7109 -0.0390625 26.2109 -0.0390625 28.7109 -0.0390625C28.7109 0.794273 28.7109 1.6276 28.7109 2.46094C27.8776 2.46094 27.0443 2.46094 26.2109 2.46094C26.2109 3.29427 26.2109 4.1276 26.2109 4.96094C26.2109 4.98698 26.2109 5.01302 26.2109 5.03906C25.3752 4.94888 24.5419 4.94888 23.7109 5.03906C23.7109 5.01302 23.7109 4.98698 23.7109 4.96094C23.7109 4.1276 23.7109 3.29427 23.7109 2.46094C22.8776 2.46094 22.0443 2.46094 21.2109 2.46094C21.2109 1.6276 21.2109 0.794273 21.2109 -0.0390625Z" fill="#FCD2E2"/>
<path opacity="0.993" fill-rule="evenodd" clip-rule="evenodd" d="M23.7109 4.96094C23.7109 4.98698 23.7109 5.01302 23.7109 5.03906C23.7109 5.84635 23.7109 6.65365 23.7109 7.46094C24.5443 7.46094 25.3776 7.46094 26.2109 7.46094C26.2109 6.65365 26.2109 5.84635 26.2109 5.03906C26.2109 5.01302 26.2109 4.98698 26.2109 4.96094C31.8095 5.70365 35.7027 8.67242 37.8906 13.8672C39.5201 18.7255 38.817 23.2046 35.7812 27.3047C34.2172 29.2382 32.277 30.6445 29.9609 31.5234C29.9479 29.6222 29.9609 27.7212 30 25.8203C32.9973 23.5213 34.1692 20.5005 33.5156 16.7578C32.2125 12.4005 29.2828 10.1349 24.7266 9.96094C21.7352 10.1346 19.3785 11.4366 17.6562 13.8672C16.0602 16.3758 15.7737 19.032 16.7969 21.8359C17.4585 23.4613 18.5002 24.7894 19.9219 25.8203C19.9609 27.7212 19.974 29.6222 19.9609 31.5234C16.7006 30.2685 14.2787 28.081 12.6953 24.9609C13.0338 24.9609 13.3724 24.9609 13.7109 24.9609C13.7109 24.1276 13.7109 23.2943 13.7109 22.4609C13.0599 22.4609 12.4088 22.4609 11.7578 22.4609C11.7318 22.4609 11.7057 22.4609 11.6797 22.4609C11.458 21.6376 11.3017 20.8042 11.2109 19.9609C11.237 19.9609 11.263 19.9609 11.2891 19.9609C12.0963 19.9609 12.9037 19.9609 13.7109 19.9609C13.7109 19.1276 13.7109 18.2943 13.7109 17.4609C12.9037 17.4609 12.0963 17.4609 11.2891 17.4609C11.263 17.4609 11.237 17.4609 11.2109 17.4609C11.3017 16.6177 11.458 15.7843 11.6797 14.9609C11.7057 14.9609 11.7318 14.9609 11.7578 14.9609C12.4088 14.9609 13.0599 14.9609 13.7109 14.9609C13.7109 14.1276 13.7109 13.2943 13.7109 12.4609C13.3724 12.4609 13.0338 12.4609 12.6953 12.4609C15.0495 8.05297 18.7214 5.55298 23.7109 4.96094Z" fill="#CF3085"/>
<path fill-rule="evenodd" clip-rule="evenodd" d="M26.2109 5.03883C26.2109 5.84612 26.2109 6.65341 26.2109 7.4607C25.3776 7.4607 24.5443 7.4607 23.7109 7.4607C23.7109 6.65341 23.7109 5.84612 23.7109 5.03883C24.5419 4.94865 25.3752 4.94865 26.2109 5.03883Z" fill="#CF3085"/>
<path fill-rule="evenodd" clip-rule="evenodd" d="M29.9608 31.5234C26.627 32.7734 23.2937 32.7734 19.9608 31.5234C19.9739 29.6222 19.9608 27.7212 19.9218 25.8203C18.5001 24.7894 17.4584 23.4613 16.7968 21.8359C15.7737 19.032 16.0601 16.3758 17.6561 13.8672C19.3784 11.4366 21.7351 10.1346 24.7265 9.96094C29.2827 10.1349 32.2124 12.4005 33.5155 16.7578C34.1691 20.5005 32.9972 23.5213 29.9999 25.8203C29.9608 27.7212 29.9478 29.6222 29.9608 31.5234Z" fill="#FCD2E2"/>
<path fill-rule="evenodd" clip-rule="evenodd" d="M12.6953 12.4609C12.2955 13.2609 11.983 14.0941 11.7578 14.9609C11.7318 14.9609 11.7057 14.9609 11.6797 14.9609C8.19008 14.9609 4.70052 14.9609 1.21094 14.9609C1.21094 14.1276 1.21094 13.2943 1.21094 12.4609C5.03906 12.4609 8.86719 12.4609 12.6953 12.4609Z" fill="#FCD2E2"/>
<path fill-rule="evenodd" clip-rule="evenodd" d="M12.6953 12.4609C13.0338 12.4609 13.3724 12.4609 13.7109 12.4609C13.7109 13.2943 13.7109 14.1276 13.7109 14.9609C13.0599 14.9609 12.4088 14.9609 11.7578 14.9609C11.983 14.0941 12.2955 13.2609 12.6953 12.4609Z" fill="#CF3085"/>
<path fill-rule="evenodd" clip-rule="evenodd" d="M24.0232 12.4608C25.6673 12.3284 27.1777 12.7061 28.5545 13.5937C28.8432 13.8046 29.1036 14.039 29.3357 14.2968C27.6842 16.0395 25.9915 17.7452 24.2576 19.414C23.4243 18.6067 22.591 17.7994 21.7576 16.9921C21.1858 17.5248 20.6259 18.0717 20.0779 18.6327C20.0258 18.6848 20.0258 18.7369 20.0779 18.789C21.4451 20.1562 22.8123 21.5233 24.1795 22.8905C24.2316 22.9426 24.2836 22.9426 24.3357 22.8905C26.4451 20.7812 28.5545 18.6718 30.6639 16.5624C30.7611 16.5268 30.8261 16.5658 30.8592 16.6796C31.7074 19.8393 30.7829 22.3263 28.0857 24.1405C25.2464 25.5612 22.6814 25.1835 20.3904 23.0077C18.3941 20.549 18.1858 17.9448 19.7654 15.1952C20.8372 13.7414 22.2565 12.83 24.0232 12.4608Z" fill="#CF3085"/>
<path fill-rule="evenodd" clip-rule="evenodd" d="M11.2109 17.4609C11.237 17.4609 11.263 17.4609 11.2891 17.4609C11.196 18.292 11.196 19.1253 11.2891 19.9609C11.263 19.9609 11.237 19.9609 11.2109 19.9609C8.71094 19.9609 6.21094 19.9609 3.71094 19.9609C3.71094 19.1276 3.71094 18.2943 3.71094 17.4609C6.21094 17.4609 8.71094 17.4609 11.2109 17.4609Z" fill="#FCD2E2"/>
<path fill-rule="evenodd" clip-rule="evenodd" d="M11.289 17.4609C12.0963 17.4609 12.9036 17.4609 13.7109 17.4609C13.7109 18.2943 13.7109 19.1276 13.7109 19.9609C12.9036 19.9609 12.0963 19.9609 11.289 19.9609C11.196 19.1253 11.196 18.292 11.289 17.4609Z" fill="#CF3085"/>
<path fill-rule="evenodd" clip-rule="evenodd" d="M11.6797 22.4609C11.7057 22.4609 11.7318 22.4609 11.7578 22.4609C11.9935 23.3245 12.306 24.1579 12.6953 24.9609C10.5338 24.9609 8.37242 24.9609 6.21094 24.9609C6.21094 24.1276 6.21094 23.2943 6.21094 22.4609C8.03383 22.4609 9.8568 22.4609 11.6797 22.4609Z" fill="#FCD2E2"/>
<path fill-rule="evenodd" clip-rule="evenodd" d="M11.7578 22.4609C12.4088 22.4609 13.0599 22.4609 13.7109 22.4609C13.7109 23.2943 13.7109 24.1276 13.7109 24.9609C13.3724 24.9609 13.0338 24.9609 12.6953 24.9609C12.306 24.1579 11.9935 23.3245 11.7578 22.4609Z" fill="#CF3085"/>
<path opacity="0.992" fill-rule="evenodd" clip-rule="evenodd" d="M19.9609 31.5234C23.2938 32.7734 26.6271 32.7734 29.9609 31.5234C29.9609 34.3359 29.9609 37.1484 29.9609 39.9609C29.9349 39.9609 29.9088 39.9609 29.8828 39.9609C28.2698 38.2959 26.6292 36.6553 24.9609 35.0391C23.2927 36.6553 21.652 38.2959 20.0391 39.9609C20.013 39.9609 19.987 39.9609 19.9609 39.9609C19.9609 37.1484 19.9609 34.3359 19.9609 31.5234Z" fill="#FCD2E2"/>
</g>
<defs>
<clipPath id="clip0_665_510">
<rect width="40" height="40" fill="white"/>
</clipPath>
</defs>
</svg>
