<svg width="30" height="26" viewBox="0 0 30 26" fill="none" xmlns="http://www.w3.org/2000/svg">
<path d="M21.5612 0.0842468C19.2643 0.494403 17.319 1.9944 16.317 4.1155C15.0514 6.79323 15.6315 10.01 17.7526 12.1253C19.153 13.5198 20.8581 14.2288 22.821 14.2288C25.4752 14.2288 27.9362 12.7112 29.1374 10.3323C30.0631 8.51003 30.1627 6.35378 29.4127 4.47878C29.0436 3.553 28.3991 2.56862 28.1706 2.56862C28.0592 2.56862 27.8952 2.72682 27.8952 2.83229C27.8952 2.87917 28.0417 3.13112 28.2174 3.38893C28.6217 3.98073 28.7682 4.2737 29.0026 4.93581C29.8405 7.30886 29.2194 9.99245 27.4264 11.7678C24.8893 14.2815 20.8639 14.3401 18.2799 11.8967C16.4928 10.2151 15.7838 7.66628 16.446 5.33425C16.6217 4.69557 17.1374 3.65261 17.5182 3.1487C18.1686 2.29323 19.2174 1.47292 20.1842 1.06276C22.3229 0.1487 24.8307 0.42995 26.6588 1.77761C26.9811 2.01784 27.0573 2.04714 27.1862 2.00612C27.362 1.94167 27.4206 1.73073 27.3034 1.59011C27.1803 1.44362 26.4362 0.963153 25.9733 0.728778C25.4049 0.441669 24.6432 0.189716 24.0045 0.0783874C23.3717 -0.0270813 22.1764 -0.0270813 21.5612 0.0842468Z" fill="#CF3085"/>
<path d="M4.99609 2.05297C4.89062 2.15844 4.91406 2.38109 5.03711 2.45141C5.10742 2.48656 5.62305 2.51 6.29688 2.51H7.44531L7.43359 4.33813L7.41602 6.17211L6.80664 6.18969C6.17969 6.20727 6.03906 6.25414 6.03906 6.44164C6.03906 6.67602 6.19141 6.72875 6.83594 6.72875H7.45117L7.43359 7.3557L7.41602 7.98852L7.02344 8.02367C6.57812 8.05883 6.28516 8.23461 6.15625 8.5393L6.08594 8.72094H3.33789H0.589844V7.87719C0.589844 7.06859 0.595703 7.03344 0.736328 6.88109C0.859375 6.75219 0.923828 6.72875 1.22852 6.72875C1.59766 6.72875 1.76172 6.64086 1.76172 6.43578C1.76172 6.07836 0.929688 6.04906 0.455078 6.38891C0.115234 6.635 0.0625 6.84594 0.0625 8.03539C0.0625 8.79125 0.0859375 9.13109 0.132812 9.17797C0.185547 9.2307 0.935547 9.24828 3.15039 9.24828C5.69336 9.24828 6.09766 9.26 6.09766 9.33617C6.09766 9.38305 6.19727 9.52367 6.32031 9.65258C6.61914 9.96313 6.87695 10.0276 7.84961 9.99828C8.76367 9.97484 8.95703 9.90453 9.19727 9.48266L9.32617 9.24828H10.5801C11.6406 9.24828 11.8457 9.23656 11.9219 9.15453C12.0391 9.0432 12.0391 9.01391 11.9219 8.84984C11.834 8.72094 11.8105 8.72094 10.5859 8.72094H9.33789L9.19727 8.50414C8.97461 8.1643 8.78125 8.05297 8.35352 8.02953L7.97266 8.00609V5.25805V2.51H9.12109C9.79492 2.51 10.3105 2.48656 10.3809 2.45141C10.5039 2.38109 10.5273 2.15844 10.4219 2.05297C10.3223 1.95336 5.0957 1.95336 4.99609 2.05297ZM8.64648 8.69164C8.83398 8.87328 8.83984 9.12523 8.6582 9.30102C8.52344 9.4182 8.47656 9.42406 7.65039 9.41234C6.78906 9.39477 6.7832 9.39477 6.66602 9.23656C6.53125 9.06078 6.56055 8.84398 6.74219 8.66234C6.84766 8.55688 6.94141 8.54516 7.67969 8.54516C8.47656 8.54516 8.51172 8.55102 8.64648 8.69164Z" fill="#CF3085"/>
<path d="M3.64885 3.57655C3.61955 3.61757 3.34416 4.13905 3.04533 4.73671C2.57072 5.68007 2.49455 5.86757 2.47697 6.18397C2.43596 6.79921 2.68791 7.27968 3.20939 7.56679C3.60197 7.77772 3.94767 7.81874 4.34611 7.70741C4.9965 7.51405 5.41252 6.95741 5.41252 6.27772C5.41838 5.93788 5.38322 5.84413 4.94377 4.94764C4.26408 3.57655 4.21721 3.50624 3.93596 3.50624C3.81291 3.50624 3.684 3.54139 3.64885 3.57655ZM4.85588 6.34804C4.809 6.89296 4.45744 7.20936 3.91838 7.20936C3.5551 7.2035 3.29728 7.0453 3.11564 6.72889C2.89299 6.33632 2.95158 6.0785 3.49064 5.05897L3.94767 4.18593L4.41642 5.11757C4.85002 5.99061 4.87931 6.06679 4.85588 6.34804Z" fill="#CF3085"/>
<path d="M19.0703 3.79311C18.6426 3.98647 18.2852 4.53139 18.2852 5.00014C18.2852 5.50405 18.7422 6.12514 19.1992 6.25405C19.3281 6.2892 19.8848 6.3185 20.4414 6.3185H21.4492V6.83412C21.4492 7.15639 21.4727 7.37319 21.5195 7.42006C21.6074 7.50795 21.8184 7.50795 21.9063 7.42006C22.0059 7.32045 22.0059 5.96108 21.9063 5.86147C21.8535 5.80873 21.4961 5.79116 20.6641 5.79116C19.6563 5.79116 19.457 5.77358 19.2871 5.68569C18.9883 5.5392 18.8535 5.31655 18.8535 5.00014C18.8535 4.68373 18.9883 4.46108 19.2871 4.31459C19.4688 4.21498 19.7617 4.20912 22.7852 4.20912C25.5039 4.20912 26.1133 4.22084 26.2422 4.29116C26.6875 4.52553 26.8457 5.006 26.5938 5.381C26.3418 5.756 26.1953 5.79116 24.8711 5.79116C24.0391 5.79116 23.6816 5.80873 23.6289 5.86147C23.5762 5.9142 23.5586 6.49428 23.5586 8.10561C23.5586 10.1505 23.5527 10.2853 23.4414 10.4611C23.1191 10.9943 22.2988 10.9357 22.0703 10.3615C22 10.1798 21.9766 9.91616 21.9766 9.24819C21.9766 8.42202 21.9707 8.36928 21.8535 8.31069C21.7598 8.25795 21.7012 8.26381 21.5898 8.33998C21.4492 8.42788 21.4492 8.43959 21.4492 9.38295C21.4492 10.297 21.4551 10.3498 21.6016 10.6427C22.0176 11.4806 23.1016 11.6447 23.7461 10.965C24.0742 10.6193 24.0859 10.5431 24.0859 8.33998V6.3185H25.1582C26.0664 6.3185 26.2598 6.30092 26.459 6.20717C27.4609 5.75014 27.5195 4.34975 26.5527 3.84584L26.2422 3.68178H22.7734C19.5391 3.68178 19.293 3.6935 19.0703 3.79311Z" fill="#CF3085"/>
<path d="M13.0352 4.9944C12.959 5.04714 12.877 5.22878 12.8066 5.48073C12.7363 5.75026 12.6543 5.92018 12.5488 6.01393C12.2266 6.29518 12.2148 6.29518 11.9219 5.90846C11.5176 5.39284 11.4824 5.3987 10.9844 5.9319L10.5684 6.38307L9.94141 6.05495C9.35547 5.7444 9.30859 5.72682 9.18555 5.80886C8.94531 5.97292 8.26562 6.64089 8.26562 6.71706C8.26562 6.79909 8.47656 7.02175 8.55273 7.02175C8.58789 7.02175 8.78125 6.87526 8.99805 6.69362L9.37891 6.3655L9.99414 6.69362C10.4629 6.94557 10.6328 7.01003 10.7148 6.96901C10.7734 6.93971 10.9551 6.76979 11.125 6.58815C11.2949 6.40651 11.4531 6.26003 11.4766 6.26003C11.5 6.26003 11.582 6.35378 11.6582 6.47096C11.8047 6.6819 12.1035 6.96315 12.1914 6.96315C12.2148 6.96315 12.4492 6.79323 12.7012 6.58815C13.082 6.28346 13.1758 6.16628 13.2402 5.96706L13.3164 5.71511L13.6152 6.01393C14.1074 6.4944 14.7051 6.67604 14.7988 6.37721C14.8516 6.20143 14.7344 6.04323 14.4941 5.9612C14.3535 5.92018 14.0781 5.70339 13.7617 5.3987C13.4863 5.13503 13.2344 4.91237 13.2051 4.91237C13.1758 4.91237 13.0996 4.94753 13.0352 4.9944Z" fill="#CF3085"/>
<path d="M13.1059 8.84981C13.0297 8.96114 13.0239 8.99629 13.0942 9.10176C13.1645 9.20723 13.2407 9.21895 14.0376 9.23653C14.9516 9.25411 15.0629 9.22481 15.0629 8.99043C15.0629 8.74434 14.9692 8.7209 14.061 8.7209C13.2348 8.7209 13.1879 8.72676 13.1059 8.84981Z" fill="#CF3085"/>
<path d="M0.074707 10.1975C-0.0249023 10.2971 -0.0249023 25.2503 0.074707 25.3499C0.174316 25.4495 29.8345 25.4495 29.9341 25.3499C30.0337 25.2503 30.022 24.5178 29.9165 24.1018C29.7466 23.4456 29.2017 22.8362 28.5571 22.5842C28.147 22.426 26.7759 22.385 26.2485 22.5139C25.7856 22.6311 25.2993 22.9534 25.0239 23.3284L24.8188 23.6096L24.731 23.4749C24.1978 22.6721 23.5415 22.4026 22.188 22.4436C21.438 22.4612 21.3267 22.4788 21.022 22.6253C20.5884 22.8245 20.2837 23.0589 20.0728 23.3635L19.9146 23.6038L19.7505 23.3811C19.5103 23.0471 19.1235 22.7424 18.7603 22.596C18.4673 22.4788 18.3267 22.4612 17.4653 22.4612C16.6743 22.4612 16.4517 22.4788 16.229 22.5667C15.8481 22.7132 15.4556 23.0061 15.2036 23.3284L14.9868 23.6038L14.8872 23.4456C14.7231 23.176 14.2544 22.7835 13.9028 22.6194C13.5806 22.4671 13.5278 22.4612 12.5728 22.4612C11.6763 22.4612 11.5415 22.4788 11.2485 22.596C10.8853 22.7424 10.4985 23.0471 10.2583 23.3811L10.0942 23.6038L9.93604 23.3635C9.7251 23.0589 9.42041 22.8245 8.98682 22.6253C8.68213 22.4788 8.5708 22.4612 7.8208 22.4436C7.19385 22.426 6.90674 22.4436 6.61963 22.5139C6.15674 22.6311 5.67041 22.9534 5.39502 23.3284L5.18994 23.6096L5.10205 23.4749C4.56885 22.6721 3.9126 22.4026 2.55908 22.4436C1.80908 22.4612 1.70361 22.4788 1.38721 22.6253C1.19385 22.7132 0.924316 22.8772 0.783691 22.9944L0.531738 23.1995V21.6467V20.0882H1.77979C2.92236 20.0882 3.03955 20.0764 3.12744 19.9827C3.26221 19.8362 3.25049 19.7014 3.09814 19.596C2.98682 19.5198 2.7583 19.5022 1.75049 19.5022H0.531738V15.9807V12.4592L0.754395 12.5003C0.871582 12.5178 1.08838 12.6057 1.23486 12.6878C2.20166 13.2385 2.08447 13.2034 2.7876 13.2034C3.49072 13.2034 3.38525 13.2385 4.35791 12.676C4.69775 12.4827 5.26025 12.4182 5.60596 12.5296C5.729 12.5706 5.99854 12.7053 6.19775 12.8342C6.73096 13.1741 7.00635 13.2503 7.60986 13.221C8.15479 13.2034 8.354 13.1272 9.02197 12.6995C9.3208 12.512 9.36768 12.5003 9.84229 12.5003C10.3403 12.5003 10.3579 12.5061 10.7856 12.7639C11.4067 13.1389 11.6763 13.2268 12.1978 13.2327C12.731 13.2327 12.9478 13.1624 13.5981 12.7874C14.0376 12.5296 14.1313 12.5003 14.5005 12.4827C14.8755 12.4651 14.9517 12.4827 15.2681 12.6526C16.229 13.1624 16.311 13.1975 16.6509 13.221C17.0376 13.2503 17.1724 13.1799 17.1724 12.9632C17.1724 12.7991 17.02 12.7053 16.7446 12.7053C16.6333 12.7053 16.3931 12.6233 16.1997 12.5237C15.0981 11.9378 15.2095 11.9729 14.5356 11.9729C13.9438 11.9729 13.9087 11.9788 13.5688 12.1721C12.6138 12.7171 12.6079 12.7171 12.1216 12.6936C11.729 12.6702 11.6235 12.6409 11.3599 12.471C10.7329 12.0725 10.5103 11.9846 10.0181 11.9553C9.41455 11.9202 9.11572 12.0022 8.51221 12.3714L8.01416 12.676H7.51025C7.00635 12.676 7.00635 12.676 6.47314 12.3655C5.83447 11.9964 5.67041 11.9436 5.12549 11.9436C4.6333 11.9436 4.34033 12.0374 3.84814 12.3421C3.38525 12.635 3.16846 12.7053 2.76416 12.6995C2.37744 12.6936 2.21924 12.6409 1.67432 12.3128C1.45166 12.178 1.13525 12.0374 0.971191 11.9964C0.812988 11.9612 0.643066 11.9202 0.60791 11.9085C0.549316 11.8967 0.531738 11.6799 0.531738 11.0999C0.531738 10.6663 0.51416 10.2737 0.496582 10.221C0.455566 10.1096 0.174316 10.0979 0.074707 10.1975ZM3.8833 23.1174C4.45166 23.3753 4.84424 23.9202 4.90869 24.5647L4.94385 24.8928H2.729H0.51416L0.555176 24.5589C0.648926 23.7503 1.18213 23.1526 1.92041 23.0178C2.4126 22.9241 3.58447 22.9885 3.8833 23.1174ZM8.80518 23.1233C9.14502 23.2757 9.53174 23.6507 9.67236 23.9788C9.73096 24.1077 9.79541 24.3714 9.81885 24.553L9.85986 24.8928H7.65088H5.43604L5.47119 24.5413C5.55322 23.7561 6.09814 23.1526 6.854 23.012C7.00049 22.9885 7.43994 22.9768 7.82666 22.9885C8.37158 23.0003 8.59424 23.0354 8.80518 23.1233ZM13.7212 23.1467C14.3188 23.4221 14.7114 23.9846 14.7114 24.5823V24.8928H12.5435H10.3755V24.6409C10.3755 23.885 10.9673 23.1819 11.7407 23.0178C11.8755 22.9885 12.3032 22.971 12.6958 22.9827C13.2993 22.9944 13.4458 23.0178 13.7212 23.1467ZM18.6255 23.135C19.1997 23.3811 19.6333 24.0315 19.6333 24.6409V24.8928H17.4653H15.2974V24.5823C15.2974 24.0374 15.6724 23.4514 16.1938 23.1878C16.5454 23.0061 16.8442 22.9651 17.6118 22.9827C18.186 22.9944 18.3677 23.0237 18.6255 23.135ZM23.5884 23.1585C24.1274 23.428 24.4731 23.926 24.5376 24.5413L24.5728 24.8928H22.3579H20.1489L20.1899 24.553C20.2427 24.1077 20.395 23.7796 20.6763 23.4983C21.1333 23.0413 21.4556 22.9534 22.5513 22.9827C23.1841 23.0061 23.3071 23.0237 23.5884 23.1585ZM28.3872 23.0999C28.9731 23.346 29.3774 23.8967 29.4536 24.553L29.4946 24.8928H27.2798H25.0649L25.1001 24.5764C25.1821 23.7737 25.7329 23.1526 26.4712 23.0178C26.9165 22.9358 28.1177 22.9885 28.3872 23.0999Z" fill="#CF3085"/>
<path d="M3.87134 15.2307C2.70533 15.6994 2.89869 17.4045 4.14088 17.6037C4.63306 17.6799 5.19556 17.3635 5.42408 16.883C5.58228 16.5549 5.52369 15.9982 5.30689 15.6818C4.99634 15.2482 4.35181 15.0432 3.87134 15.2307ZM4.59791 15.7814C4.86158 15.9103 5.00806 16.174 4.96705 16.467C4.88502 17.0588 4.20533 17.258 3.80103 16.8068C3.51392 16.4963 3.62525 15.9455 4.00611 15.7814C4.2522 15.676 4.36939 15.676 4.59791 15.7814Z" fill="#CF3085"/>
<path d="M9.17454 15.2776C8.37181 15.6467 8.20189 16.6311 8.82884 17.258C9.31517 17.7385 10.0359 17.7326 10.5281 17.2404C10.9031 16.8654 11.0027 16.3557 10.7917 15.8986C10.5046 15.2776 9.77806 14.9963 9.17454 15.2776ZM10.0124 15.8108C10.1179 15.8752 10.2468 16.0217 10.2995 16.133C10.3874 16.3205 10.3933 16.3674 10.3171 16.5842C10.2058 16.8947 9.989 17.0588 9.67845 17.0529C8.98118 17.0412 8.74095 16.174 9.33275 15.8108C9.57884 15.6643 9.76634 15.6643 10.0124 15.8108Z" fill="#CF3085"/>
<path d="M14.4773 15.26C13.5867 15.6467 13.493 16.9358 14.3191 17.4163C14.9754 17.803 15.7254 17.5803 16.0711 16.9065C16.2469 16.5549 16.2 16.0159 15.9715 15.6819C15.6434 15.219 14.993 15.0374 14.4773 15.26ZM15.2625 15.7815C15.8133 16.0452 15.7371 16.8772 15.157 17.0354C14.7352 17.1467 14.3016 16.8186 14.3016 16.3909C14.3016 15.8635 14.782 15.553 15.2625 15.7815Z" fill="#CF3085"/>
<path d="M19.6917 15.2951C19.2991 15.506 19.0882 15.8459 19.0589 16.3029C19.0296 16.7365 19.1526 17.0353 19.4807 17.3224C20.2483 17.9904 21.4671 17.4221 21.4671 16.3967C21.4671 15.7228 20.9925 15.2189 20.3186 15.1779C20.0198 15.1603 19.9085 15.1838 19.6917 15.2951ZM20.5647 15.7756C20.9514 15.9748 21.0452 16.4904 20.7639 16.8068C20.3538 17.258 19.6741 17.0588 19.5921 16.467C19.5218 15.9279 20.0843 15.5295 20.5647 15.7756Z" fill="#CF3085"/>
<path d="M25.1057 15.2777C24.7952 15.4183 24.5198 15.7581 24.4377 16.1097C24.1624 17.2523 25.5569 18.0843 26.4299 17.2991C26.8811 16.8949 26.969 16.18 26.6409 15.6995C26.3127 15.2308 25.6272 15.0433 25.1057 15.2777ZM26.0842 15.9046C26.5061 16.3089 26.2483 17.0355 25.6741 17.0531C25.2463 17.0648 24.9651 16.7894 24.9651 16.3675C24.9651 16.0921 25.0471 15.9515 25.2756 15.805C25.5276 15.6468 25.8557 15.6878 26.0842 15.9046Z" fill="#CF3085"/>
<path d="M5.50053 19.5667C5.35405 19.6487 5.35991 19.9475 5.50639 20.0296C5.65874 20.1116 8.29545 20.1116 8.4478 20.0296C8.62358 19.9358 8.60014 19.6311 8.40678 19.5608C8.20756 19.4846 5.62944 19.4905 5.50053 19.5667Z" fill="#CF3085"/>
<path d="M10.7266 19.6194C10.6621 19.6839 10.6094 19.76 10.6094 19.7952C10.6094 19.8245 10.6621 19.9065 10.7266 19.971C10.8379 20.0823 10.9199 20.0882 12.2266 20.0882C13.0645 20.0882 13.6504 20.0647 13.7207 20.0296C13.8965 19.9358 13.873 19.6311 13.6797 19.5608C13.5977 19.5257 12.9238 19.5022 12.1855 19.5022C10.9199 19.5022 10.8379 19.5081 10.7266 19.6194Z" fill="#CF3085"/>
<path d="M16.1296 19.596C15.9773 19.7014 15.9656 19.8655 16.0945 19.9944C16.2292 20.135 18.8953 20.135 19.0945 19.9944C19.1648 19.9475 19.2234 19.8538 19.2234 19.7952C19.2234 19.7366 19.1648 19.6428 19.0945 19.596C18.9832 19.5198 18.7371 19.5022 17.6121 19.5022C16.4871 19.5022 16.241 19.5198 16.1296 19.596Z" fill="#CF3085"/>
<path d="M21.4496 19.6194C21.2972 19.7717 21.3031 19.8831 21.4613 19.9944C21.6605 20.135 24.3265 20.135 24.4613 19.9944C24.5667 19.8948 24.5785 19.7483 24.4964 19.6194C24.4496 19.5432 24.2035 19.5315 23.0081 19.5139C21.6253 19.4964 21.5667 19.5022 21.4496 19.6194Z" fill="#CF3085"/>
<path d="M26.8583 19.5608C26.6825 19.6311 26.6708 19.9358 26.8348 20.0296C26.9051 20.0647 27.4911 20.0882 28.329 20.0882C29.6356 20.0882 29.7176 20.0823 29.829 19.971C29.8934 19.9065 29.9461 19.8245 29.9461 19.7952C29.9461 19.76 29.8934 19.6839 29.829 19.6194C29.7176 19.5081 29.6356 19.5022 28.3524 19.5081C27.6024 19.5081 26.9286 19.5315 26.8583 19.5608Z" fill="#CF3085"/>
</svg>
