<svg width="100" height="100" viewBox="0 0 100 100" fill="none" xmlns="http://www.w3.org/2000/svg">
<path opacity="0.98" fill-rule="evenodd" clip-rule="evenodd" d="M48.6285 0C49.5411 0 50.4536 0 51.3662 0C52.4076 0.381621 53.3961 0.869902 54.3319 1.46484C56.267 3.10664 58.4723 4.40871 60.9478 5.37109C61.7082 5.50131 62.4688 5.50131 63.2292 5.37109C65.8224 4.80787 68.4459 4.38471 71.0998 4.10156C72.9067 4.09342 74.2755 4.74445 75.2063 6.05469C76.2974 7.94557 77.21 9.89869 77.9439 11.9141C78.7563 13.4559 80.0872 14.5301 81.9362 15.1367C84.7745 15.7071 87.4359 16.6186 89.921 17.8711C90.8488 18.7888 91.3051 19.8631 91.2898 21.0938C90.9074 23.4793 90.4511 25.8557 89.921 28.2227C90.0619 29.5371 90.5561 30.7416 91.4038 31.8359C93.5184 33.9072 95.2675 36.1857 96.6509 38.6719C96.9151 39.9479 96.6108 41.1197 95.7384 42.1875C94.4786 43.6916 93.1098 45.1238 91.632 46.4844C90.4267 47.8869 89.9705 49.4494 90.2632 51.1719C90.8579 53.1969 91.2761 55.2477 91.5179 57.3242C91.5031 58.7818 90.8187 59.9537 89.4647 60.8398C87.8121 61.517 86.1392 62.1355 84.4457 62.6953C89.6362 70.2154 94.7693 77.7674 99.8448 85.3516C100.307 86.7426 99.7367 87.6215 98.1338 87.9883C94.1759 88.1363 90.2214 88.3316 86.2708 88.5742C84.6387 88.9324 83.2318 89.616 82.0503 90.625C79.9211 93.4896 77.7917 96.3541 75.6625 99.2188C75.3203 99.6033 74.9022 99.8637 74.4078 100C74.0275 100 73.6474 100 73.2671 100C72.749 99.6551 72.2549 99.2645 71.7842 98.8281C66.7069 91.1088 61.4598 83.4916 56.0429 75.9766C55.1521 76.5051 54.2776 77.0584 53.4194 77.6367C51.4761 78.6727 49.4991 78.7377 47.4879 77.832C46.3458 77.3436 45.2811 76.7576 44.294 76.0742C44.0351 75.9279 43.8069 75.9604 43.6096 76.1719C38.4581 83.8861 33.2491 91.5684 27.9823 99.2188C27.6636 99.5254 27.3214 99.7859 26.9557 100C26.3473 100 25.7391 100 25.1307 100C22.6438 97.1113 20.3243 94.1166 18.1725 91.0156C16.6947 89.7156 14.9077 88.9018 12.8114 88.5742C9.237 88.4494 5.66288 88.3191 2.08903 88.1836C0.323292 87.9297 -0.323083 87.0508 0.149887 85.5469C5.25411 77.9463 10.3871 70.3617 15.549 62.793C15.3968 62.6627 15.2449 62.5326 15.0927 62.4023C13.6731 62.0549 12.3043 61.5992 10.9863 61.0352C9.10272 60.1865 8.26624 58.852 8.47681 57.0312C8.84422 54.677 9.30049 52.3332 9.84562 50C9.7527 48.8641 9.33446 47.8223 8.59088 46.875C6.56376 45.0309 4.81472 43.0127 3.34377 40.8203C3.00173 39.2826 3.30593 37.8504 4.25631 36.5234C5.53807 34.9701 6.90688 33.4727 8.36274 32.0312C9.7386 30.5266 10.1949 28.834 9.73155 26.9531C9.22541 25.1121 8.80715 23.2566 8.47681 21.3867C8.63778 18.9687 10.0827 17.4062 12.8114 16.6992C15.2686 16.1071 17.6259 15.3258 19.8836 14.3555C20.8025 13.5963 21.5248 12.7174 22.0508 11.7188C22.7533 9.84949 23.5896 8.02658 24.5603 6.25C26.0181 4.40098 28.0332 3.78248 30.6059 4.39453C32.932 4.83574 35.2514 5.25893 37.564 5.66406C38.036 5.51488 38.5304 5.41723 39.0469 5.37109C41.1407 4.11664 43.1939 2.81455 45.2065 1.46484C46.313 0.880316 47.4537 0.392035 48.6285 0ZM48.4004 9.96094C60.7824 9.8415 70.6303 14.0082 77.9439 22.4609C85.7281 33.1432 85.9562 43.9506 78.6283 54.8828C70.1481 65.1998 58.5513 69.5291 43.8377 67.8711C29.567 65.167 20.5556 57.7777 16.8037 45.7031C14.2204 33.5004 18.517 23.5068 29.6934 15.7227C35.3349 12.3444 41.5705 10.4238 48.4004 9.96094ZM49.5411 24.0234C50.1735 23.9687 50.7438 24.099 51.2521 24.4141C52.5773 26.8135 54.0221 29.1572 55.5867 31.4453C56.6751 32.3508 57.9298 33.0344 59.3509 33.4961C62.0963 33.8504 64.8339 34.241 67.5637 34.668C68.6853 35.0289 68.9515 35.6473 68.3622 36.5234C66.385 38.2162 64.408 39.9088 62.4307 41.6016C61.1297 43.3295 60.6734 45.2174 61.0619 47.2656C61.5665 49.3352 61.8706 51.4186 61.9744 53.5156C61.2132 54.1934 60.3387 54.291 59.3509 53.8086C57.3736 52.8971 55.3966 51.9857 53.4194 51.0742C51.4649 50.5199 49.4877 50.4547 47.4879 50.8789C45.0947 51.8707 42.7374 52.9123 40.4157 54.0039C39.0211 54.4039 38.2605 53.9807 38.1343 52.7344C38.6276 50.4283 39.0838 48.1172 39.5032 45.8008C39.3968 44.1006 38.7503 42.5707 37.564 41.2109C35.6698 39.7848 33.8447 38.2873 32.0888 36.7188C31.3104 35.3652 31.8047 34.6164 33.5716 34.4727C36.0163 34.2016 38.4496 33.876 40.872 33.4961C42.5273 32.999 43.9342 32.1852 45.0925 31.0547C46.4008 28.6184 47.8837 26.2746 49.5411 24.0234Z" fill="#CF3085"/>
</svg>
