<svg width="30" height="30" viewBox="0 0 30 30" fill="none" xmlns="http://www.w3.org/2000/svg">
<path d="M11.5 10.3125H18.5L15.1875 3.75H14.8125L11.5 10.3125ZM14.0625 25.125V12.1875H3.28125L14.0625 25.125ZM15.9375 25.125L26.7188 12.1875H15.9375V25.125ZM20.5625 10.3125H27.0312L24.4375 5.125C24.2083 4.70833 23.9012 4.375 23.5162 4.125C23.1312 3.875 22.6987 3.75 22.2187 3.75H17.3125L20.5625 10.3125ZM2.96875 10.3125H9.4375L12.6875 3.75H7.78125C7.30208 3.75 6.87 3.875 6.485 4.125C6.1 4.375 5.7925 4.70833 5.5625 5.125L2.96875 10.3125Z" fill="#CF3085"/>
</svg>
