<svg width="30" height="30" viewBox="0 0 30 30" fill="none" xmlns="http://www.w3.org/2000/svg">
<path d="M13.799 0.0601658C10.3712 0.41764 7.20132 2.41598 5.36734 5.38126C4.61148 6.60605 4.53531 6.91664 4.93374 7.12175C5.25015 7.28584 5.40249 7.16277 5.77163 6.44783C6.39859 5.24648 7.4357 3.99825 8.5021 3.14851C11.2501 0.962643 14.9123 0.312156 18.3107 1.40802C19.0373 1.64243 20.3673 2.31636 21.0353 2.79104C21.756 3.30674 23.0041 4.55497 23.508 5.26992C23.7248 5.57465 24.0822 6.16653 24.2931 6.58847C24.5099 7.00455 24.7326 7.3796 24.7794 7.42062C25.0255 7.61401 25.4298 7.38546 25.4298 7.06315C25.4298 6.84046 24.8908 5.7446 24.4982 5.15271C23.5255 3.71695 22.3068 2.52733 20.8888 1.65415C18.8439 0.382479 16.2658 -0.197685 13.799 0.0601658Z" fill="#CF3085"/>
<path d="M14.2676 2.57402C10.7461 2.8729 7.75781 5.24043 6.65625 8.61007C6.35156 9.54771 6.24609 10.2451 6.24609 11.3351C6.24609 12.4251 6.375 13.2162 6.71484 14.1832C8.36133 18.9182 13.6406 21.3326 18.2637 19.4632C19.4355 18.9885 19.7402 18.7307 19.5586 18.3556C19.4121 18.0509 19.2305 18.0509 18.5918 18.3556C17.6133 18.8186 17.8066 18.8948 17.0566 17.7286C16.4121 16.7148 16.3008 16.5214 16.377 16.5214C16.3945 16.5214 16.9453 16.3983 17.5957 16.2518C18.3457 16.0877 18.8145 15.9529 18.873 15.8885C18.9844 15.7771 19.8047 13.9429 19.8047 13.8081C19.8047 13.7612 19.752 13.6557 19.6816 13.5678C19.5527 13.4096 19.3066 13.3627 19.1074 13.4682C19.0547 13.4975 18.8496 13.8784 18.6621 14.3062C18.4746 14.734 18.293 15.1149 18.2578 15.1501C18.2227 15.1911 17.7598 15.3142 17.2266 15.4372C16.6934 15.5544 16.2129 15.6658 16.1602 15.6775C16.0605 15.7068 16.0547 15.6248 16.0547 14.5289C16.0547 13.6089 16.0371 13.3158 15.9668 13.1869C15.832 12.9173 15.5801 12.8705 15.3281 13.0697L15.1758 13.1869V14.8043V16.4159L16.002 17.7052C16.4531 18.4142 16.8164 19.0003 16.8047 19.012C16.793 19.0237 16.5059 19.0765 16.166 19.1233C14.8066 19.3284 13.5586 19.1937 12.1816 18.6897C11.3789 18.4025 11.3906 18.4963 12.0059 17.4883C12.2988 17.0078 12.5391 16.5507 12.5391 16.4745C12.5391 16.2987 12.4453 16.2108 11.3848 15.3845L10.4883 14.6871V13.2572V11.8273L10.3418 11.6867C10.1602 11.4992 9.9375 11.4992 9.75586 11.6867L9.60938 11.8273V13.4448C9.60938 15.3376 9.47461 15.0153 10.6465 15.9236C11.0742 16.2577 11.4375 16.5566 11.4551 16.5859C11.4902 16.6386 10.7461 17.9278 10.6875 17.9278C10.582 17.9278 9.71484 17.1953 9.28125 16.7382C8.20312 15.6072 7.54688 14.3297 7.23047 12.7415C7.07227 11.968 7.08984 10.5381 7.25977 9.74109C7.9043 6.67619 10.1953 4.33209 13.2305 3.62301C13.4941 3.5644 13.8984 3.49408 14.1211 3.4765L14.5312 3.43548V4.8771V6.31286L13.2305 7.0278L11.9238 7.74861L11.0684 7.29738C10.5645 7.03952 10.1367 6.852 10.0371 6.852C9.69141 6.852 9.48047 7.3091 9.71484 7.54351C9.77344 7.60211 10.1953 7.84238 10.6523 8.07679L11.4844 8.50458V9.70007C11.4844 10.8956 11.4844 10.9014 11.6309 11.0421C11.707 11.1241 11.8418 11.1886 11.9238 11.1886C12.0059 11.1886 12.1406 11.1241 12.2168 11.0421C12.3633 10.9014 12.3633 10.8956 12.3633 9.70593V8.50458L13.6523 7.7955L14.9473 7.08641L16.1133 8.10023L17.2852 9.10819V10.5498C17.2852 11.9797 17.2852 11.9914 17.4199 12.1145C17.6133 12.2962 17.8887 12.2844 18.041 12.091C18.1582 11.9445 18.1641 11.8625 18.1641 10.626V9.3133H19.2656H20.3613L21.6211 10.5732C23.0508 12.0031 22.9336 11.7805 22.7578 12.7708C22.5 14.2066 21.8262 15.5486 20.8184 16.6386C20.4609 17.0312 20.3906 17.1426 20.3906 17.3067C20.3906 17.4532 20.4316 17.5411 20.543 17.629C20.8359 17.8575 21 17.7755 21.5684 17.1309C23.7422 14.6637 24.3574 11.2062 23.1738 8.12953C21.791 4.53134 18.123 2.24585 14.2676 2.57402ZM16.3828 3.54096C19.5293 4.09183 22.0957 6.58829 22.7344 9.71765C22.9277 10.6846 22.9746 10.6963 21.7969 9.51841L20.7422 8.46356L19.2832 8.43426L17.8184 8.40496L17.2734 7.93614C16.9746 7.67829 16.4473 7.22119 16.1016 6.91646L15.4688 6.3656V4.91226V3.45306H15.668C15.7734 3.45306 16.0957 3.49408 16.3828 3.54096Z" fill="#CF3085"/>
<path d="M4.13672 8.36396C4.01953 8.49875 3.84375 9.3016 3.74414 10.1338C3.60937 11.3234 3.76172 13.2514 4.07227 14.2652C4.11914 14.4234 4.16016 14.5934 4.16016 14.6286C4.16016 14.6872 3.73242 14.7047 2.22656 14.7047H0.287109L0.146484 14.8512C-0.0410156 15.0329 -0.0410156 15.2556 0.146484 15.4373L0.287109 15.5838H2.39648H4.5L4.78711 16.1815C5.34375 17.3418 6.04102 18.3381 6.95508 19.2757L7.5 19.8324L7.36523 19.9379C7.06055 20.1782 6.32227 20.4947 5.91211 20.565C5.37305 20.6587 4.69922 20.6119 4.21289 20.4478C4.00781 20.3774 3.52148 20.1137 3.12891 19.8559C2.07422 19.1761 1.54102 18.9769 0.685547 18.9651C0.269531 18.9534 0.216797 18.9651 0.111328 19.0941C-0.0351562 19.2757 -0.0292969 19.4691 0.134766 19.6449C0.240234 19.7621 0.357422 19.7973 0.837891 19.8559C1.51758 19.9321 1.92187 20.102 2.64258 20.5943C3.5332 21.2096 4.11914 21.4264 5.03906 21.4792C6.04687 21.5378 6.82031 21.3268 7.71094 20.7525L8.24414 20.4067L8.73633 20.7349L9.22851 21.069L9.05859 21.3151C8.85351 21.6022 8.78906 22.1121 8.90625 22.4696C9.04687 22.8915 9.48633 23.2607 9.97266 23.3486C10.5469 23.4541 11.2266 23.0028 11.4023 22.3992C11.4727 22.1531 11.5137 22.0886 11.5898 22.1121C11.6426 22.1297 11.8828 22.1941 12.123 22.2586C12.3633 22.3289 12.5801 22.3992 12.6035 22.4227C12.6211 22.452 13.1191 23.1083 13.7051 23.8877L14.7656 25.3118H15H15.2344L16.2949 23.8877C16.8809 23.1083 17.3789 22.452 17.3965 22.4227C17.4199 22.3992 17.6367 22.3289 17.877 22.2586C18.1172 22.1941 18.3574 22.1297 18.4102 22.1121C18.4863 22.0886 18.5273 22.1531 18.6035 22.411C18.8906 23.4131 20.1504 23.6768 20.8418 22.8856C21.2168 22.4637 21.2578 21.7663 20.9414 21.3151L20.7715 21.069L21.2637 20.7349L21.7617 20.4067L22.2539 20.7291C22.5293 20.9107 22.9395 21.1276 23.168 21.2155C24 21.5378 25.0957 21.5788 25.9336 21.3209C26.4551 21.1627 26.6895 21.0397 27.3281 20.6119C28.084 20.0962 28.4824 19.9321 29.1621 19.8559C29.6426 19.7973 29.7598 19.7621 29.8652 19.6449C30.0293 19.4691 30.0352 19.2757 29.8887 19.0941C29.7832 18.9651 29.7305 18.9534 29.3145 18.9651C28.459 18.9769 27.8555 19.2054 26.748 19.9379C26.0801 20.3716 25.6172 20.5533 25.002 20.6001C24.3691 20.6529 23.7832 20.5474 23.2324 20.272C22.9746 20.143 22.7051 19.9907 22.6348 19.9379L22.5 19.8324L23.0449 19.2757C23.959 18.3381 24.6562 17.3418 25.2129 16.1815L25.5 15.5838H27.6035H29.7129L29.8535 15.4373C29.9355 15.3611 30 15.2263 30 15.1443C30 15.0622 29.9355 14.9274 29.8535 14.8512L29.7129 14.7047H27.7734C26.7129 14.7047 25.8398 14.6872 25.8398 14.6579C25.8398 14.6344 25.9043 14.3531 25.9863 14.0308C26.3262 12.7005 26.4023 10.7608 26.168 9.45983C26.0391 8.75074 26.0332 8.73902 25.834 8.63939C25.623 8.52805 25.3945 8.58079 25.2715 8.76246C25.1895 8.89138 25.1895 8.96171 25.2891 9.53601C25.459 10.4912 25.4414 12.3313 25.2656 13.2397C24.4453 17.3243 21.5156 20.4302 17.5195 21.444C17.2031 21.5261 16.9687 21.6198 16.875 21.7077C16.793 21.7839 16.3477 22.3641 15.8789 22.9911C15.4102 23.6182 15.0176 24.1339 15 24.1339C14.9824 24.1339 14.5898 23.6182 14.1211 22.9911C13.6523 22.3641 13.207 21.7839 13.125 21.7077C13.0312 21.6198 12.7969 21.5261 12.4805 21.444C8.92383 20.5415 6.16406 17.9513 5.04492 14.4586C4.6875 13.3393 4.59961 12.7005 4.60547 11.3058C4.60547 10.3506 4.63477 9.92278 4.71094 9.54773C4.88672 8.68041 4.89258 8.52219 4.75195 8.38154C4.59375 8.22332 4.27148 8.21746 4.13672 8.36396ZM10.418 21.7194C10.4883 21.778 10.5586 21.8952 10.582 21.9832C10.6113 22.1121 10.582 22.1824 10.4355 22.3289C10.2832 22.4754 10.2187 22.5047 10.0898 22.4696C9.84961 22.411 9.72656 22.2703 9.72656 22.0476C9.72656 21.6784 10.1367 21.485 10.418 21.7194ZM20.1562 21.737C20.3027 21.8835 20.3086 22.2117 20.1738 22.3406C20.1152 22.3875 19.998 22.452 19.9102 22.4696C19.7812 22.5047 19.7168 22.4754 19.5645 22.3289C19.418 22.1824 19.3887 22.1121 19.418 21.9832C19.5 21.6433 19.9219 21.5026 20.1562 21.737Z" fill="#CF3085"/>
<path d="M3.22271 16.9318C2.95904 17.1955 3.15826 17.635 3.53911 17.635C3.75591 17.635 3.98443 17.424 3.98443 17.2248C3.98443 17.1662 3.93169 17.0548 3.86138 16.9669C3.70904 16.7736 3.39849 16.756 3.22271 16.9318Z" fill="#CF3085"/>
<path d="M26.1387 16.9669C26.0684 17.0548 26.0156 17.1661 26.0156 17.2247C26.0156 17.2833 26.0684 17.3947 26.1387 17.4826C26.3789 17.7873 26.8945 17.6174 26.8945 17.2247C26.8945 16.8321 26.3789 16.6621 26.1387 16.9669Z" fill="#CF3085"/>
<path d="M5.11523 18.5725C4.96289 18.637 4.86328 18.8069 4.86328 19.0062C4.86328 19.3754 5.38477 19.5336 5.61914 19.2406C5.68945 19.1527 5.74219 19.0472 5.74219 19.0062C5.74219 18.8538 5.60742 18.6429 5.4668 18.5784C5.30273 18.5022 5.29102 18.5022 5.11523 18.5725Z" fill="#CF3085"/>
<path d="M24.5156 18.5784C24.3867 18.6428 24.2578 18.8597 24.2578 19.0062C24.2578 19.0472 24.3105 19.1527 24.3809 19.2406C24.6211 19.5453 25.1367 19.3695 25.1367 18.9769C25.1367 18.6663 24.791 18.4436 24.5156 18.5784Z" fill="#CF3085"/>
<path d="M0.123047 20.8931C-0.117188 21.1979 0.0234375 21.5378 0.416016 21.5964C0.761719 21.655 0.955078 21.9421 0.84375 22.2351C0.796875 22.3465 0.521484 22.4988 0.357422 22.4988C0.216797 22.4988 0 22.7625 0 22.9383C0 23.0145 0.0527344 23.1317 0.111328 23.2079C0.322266 23.4716 1.04297 23.331 1.38867 22.9559C1.98633 22.3172 1.81055 21.274 1.03711 20.8873C0.626953 20.688 0.287109 20.688 0.123047 20.8931Z" fill="#CF3085"/>
<path d="M28.9398 20.9048C28.7172 21.022 28.5765 21.1451 28.4593 21.3385C27.9261 22.1999 28.5004 23.3134 29.4906 23.3427C29.725 23.3485 29.7953 23.3251 29.889 23.2079C30.1234 22.9207 29.9418 22.5398 29.5375 22.4754C28.9632 22.3875 29.0043 21.6901 29.5843 21.5963C29.9769 21.5377 30.1175 21.1978 29.8773 20.8931C29.7074 20.6821 29.3617 20.6821 28.9398 20.9048Z" fill="#CF3085"/>
<path d="M4.95101 22.3231C4.47054 22.4462 4.06625 22.7568 3.84945 23.167C3.67367 23.4952 3.66781 24.2394 3.83773 24.5793C4.00179 24.9134 4.40609 25.2826 4.72836 25.3939C6.15804 25.8803 7.41781 24.3918 6.67367 23.0967C6.32796 22.4931 5.58382 22.1591 4.95101 22.3231ZM5.71859 23.2959C5.86507 23.3956 6.035 23.7179 6.035 23.9054C6.035 24.257 5.67757 24.6086 5.32015 24.6086C4.7225 24.6086 4.38265 24.0109 4.68734 23.5069C4.89828 23.1612 5.36703 23.0674 5.71859 23.2959Z" fill="#CF3085"/>
<path d="M24.2166 22.3699C23.367 22.6747 22.9276 23.5068 23.1678 24.3448C23.4959 25.47 24.9901 25.8743 25.8104 25.0539C26.1737 24.6847 26.2791 24.4269 26.2791 23.876C26.2791 23.4716 26.2557 23.372 26.1209 23.1376C25.7049 22.4344 24.9256 22.1179 24.2166 22.3699ZM24.9901 23.2255C25.3709 23.3896 25.5408 23.8994 25.3358 24.2569C25.1131 24.6203 24.5858 24.7257 24.2694 24.462C23.7244 24.0049 23.9881 23.2255 24.7147 23.1493C24.7557 23.1493 24.8787 23.1786 24.9901 23.2255Z" fill="#CF3085"/>
<path d="M0.152336 24.7433C-0.158211 25.0539 0.0644456 25.4876 0.539055 25.4876C0.919914 25.4876 1.53515 25.6341 1.86327 25.804C2.02734 25.8861 2.42577 26.1264 2.74804 26.3373C3.63866 26.9233 4.08984 27.0874 5.0039 27.1636C5.73046 27.2222 6.03515 27.0874 6.03515 26.7065C6.03515 26.4487 5.83593 26.308 5.46093 26.308C4.53515 26.3022 3.98437 26.1205 3.0703 25.5052C2.7832 25.3118 2.44335 25.1008 2.31445 25.0364C1.92187 24.8312 1.30077 24.6672 0.791008 24.632C0.322258 24.591 0.298821 24.5968 0.152336 24.7433Z" fill="#CF3085"/>
<path d="M9.52187 24.6437C8.71328 24.7785 7.79922 25.2063 7.2543 25.7102C7.0668 25.886 7.04336 26.1205 7.1957 26.2963C7.39492 26.5365 7.54726 26.5131 8.11562 26.1556C9.00625 25.5872 9.80312 25.3996 10.7055 25.5403C11.2445 25.6223 11.6547 25.804 12.3168 26.2552C13.3305 26.9409 13.9516 27.1519 15.0004 27.1519C16.0492 27.1519 16.6 26.9702 17.6488 26.2728C18.3812 25.7923 18.7504 25.6223 19.2953 25.5403C20.2328 25.3938 21.0062 25.5813 21.9203 26.1791C23.1391 26.9819 23.6078 27.146 24.6977 27.146C25.7641 27.146 26.268 26.9878 27.2172 26.3607C27.557 26.138 27.9672 25.8919 28.1313 25.804C28.4652 25.6341 29.0805 25.4875 29.4613 25.4875C29.9359 25.4875 30.1586 25.0539 29.848 24.7433C29.7016 24.5968 29.6781 24.5909 29.2094 24.632C28.6996 24.6671 28.0785 24.8312 27.6859 25.0363C27.557 25.1008 27.2172 25.3117 26.9301 25.5051C26.2094 25.9857 25.7816 26.1732 25.225 26.2552C24.2758 26.3842 23.5609 26.2025 22.6469 25.6048C21.4281 24.8019 20.977 24.6437 19.8637 24.6437C18.7504 24.6437 18.2875 24.8019 17.1098 25.5755C16.2719 26.1322 15.8559 26.267 15.0004 26.267C14.1449 26.267 13.7289 26.1322 12.891 25.5755C12.1703 25.1008 11.725 24.8722 11.268 24.755C10.9223 24.6613 9.84414 24.5968 9.52187 24.6437Z" fill="#CF3085"/>
<path d="M0.146484 29.2675C0.0644531 29.3437 0 29.4784 0 29.5605C0 29.6425 0.0644531 29.7773 0.146484 29.8535L0.287109 30H15H29.7129L29.8535 29.8535C30.041 29.6718 30.041 29.4491 29.8535 29.2675L29.7129 29.121H15H0.287109L0.146484 29.2675Z" fill="#CF3085"/>
</svg>
