<svg width="30" height="30" viewBox="0 0 30 30" fill="none" xmlns="http://www.w3.org/2000/svg">
<path d="M3.75 21.825V25.625C3.75 25.975 4.025 26.25 4.375 26.25H8.175C8.3375 26.25 8.5 26.1875 8.6125 26.0625L22.2625 12.425L17.575 7.7375L3.9375 21.375C3.8125 21.5 3.75 21.65 3.75 21.825ZM25.8875 8.8C26.0034 8.68436 26.0953 8.547 26.158 8.39578C26.2208 8.24457 26.2531 8.08246 26.2531 7.91875C26.2531 7.75504 26.2208 7.59294 26.158 7.44172C26.0953 7.29051 26.0034 7.15315 25.8875 7.0375L22.9625 4.1125C22.8469 3.99662 22.7095 3.90469 22.5583 3.84196C22.4071 3.77924 22.245 3.74695 22.0813 3.74695C21.9175 3.74695 21.7554 3.77924 21.6042 3.84196C21.453 3.90469 21.3156 3.99662 21.2 4.1125L18.9125 6.4L23.6 11.0875L25.8875 8.8Z" fill="#CF3085" fill-opacity="0.8"/>
</svg>
