<svg width="29" height="30" viewBox="0 0 29 30" fill="none" xmlns="http://www.w3.org/2000/svg">
<path d="M14.9184 0.820406C14.4109 0.816414 13.9042 0.940443 13.456 1.19416C10.5779 2.81639 7.41167 4.76541 4.11649 6.66355C4.11431 6.66499 4.11214 6.66644 4.10997 6.66789C2.4895 7.61719 1.17625 9.10817 0.950455 10.9052V10.9074C0.415946 15.2179 0.651368 19.5376 1.6545 23.8409C1.6566 23.8482 1.65877 23.8555 1.66102 23.8627C1.96043 25.0443 2.6822 26.1234 3.57759 27.0331C4.47297 27.9427 5.54351 28.6833 6.72623 28.9996C6.73346 29.0018 6.7407 29.004 6.74796 29.0061C12.1076 30.3268 17.4945 30.3268 22.8541 29.0061C22.8614 29.004 22.8686 29.0018 22.8758 28.9996C24.0585 28.6833 25.1291 27.943 26.0245 27.0331C26.9198 26.1232 27.6423 25.043 27.941 23.8605C27.9425 23.854 27.944 23.8475 27.9454 23.8409C28.9508 19.5306 29.1874 15.2051 28.6494 10.8878L28.6473 10.8856C28.4216 9.10311 27.1253 7.62045 25.5203 6.66789C25.5182 6.66644 25.516 6.66499 25.5138 6.66355C22.2918 4.78206 19.1968 2.84561 16.3786 1.21372C15.9337 0.955597 15.4258 0.824398 14.9184 0.820406ZM14.9032 3.01729C15.0129 3.01834 15.1236 3.05887 15.2617 3.13897C18.0308 4.74242 21.1328 6.681 24.3926 8.58446C25.5198 9.25616 26.3415 10.4001 26.4395 11.1638C26.9444 15.2161 26.7259 19.258 25.7811 23.3173C25.623 23.9403 25.1133 24.7868 24.4382 25.4729C23.7631 26.159 22.9271 26.6811 22.3043 26.8484C21.4734 27.0526 20.6458 27.0182 19.8163 27.1547C20.303 24.3491 20.3171 21.4375 19.7207 18.6606C19.721 18.575 19.7116 18.4897 19.6924 18.4063C19.6857 18.3763 19.6777 18.3466 19.6685 18.3172C19.6671 18.3114 19.6656 18.3056 19.6642 18.2999C19.6614 18.2911 19.6585 18.2824 19.6555 18.2738C19.6526 18.2665 19.6497 18.2593 19.6468 18.252C19.6362 18.2248 19.6246 18.198 19.612 18.1716C19.5963 18.1382 19.5788 18.1056 19.5599 18.0739C19.4588 17.9023 19.3136 17.7609 19.1393 17.6646C18.965 17.5683 18.768 17.5205 18.569 17.5263C16.1636 16.4797 13.482 16.4874 11.0765 17.5306C10.8092 17.5116 10.5439 17.5896 10.3295 17.7505C10.1152 17.9114 9.96606 18.1443 9.90965 18.4063C9.90831 18.412 9.90881 18.418 9.90748 18.4237C9.89079 18.4994 9.88205 18.5766 9.8814 18.654V18.6584C9.2845 21.4359 9.29897 24.3484 9.78579 27.1547C8.95628 27.0182 8.12868 27.0526 7.29773 26.8484C6.67495 26.6811 5.83918 26.1589 5.16386 25.4729C4.48983 24.7881 3.9805 23.944 3.82096 23.3216C2.87804 19.2688 2.65678 15.2291 3.1582 11.1833V11.1812C3.25596 10.4105 4.0954 9.25456 5.23557 8.58663C8.56486 6.66863 11.7294 4.71944 14.549 3.13028H14.5511C14.6847 3.05468 14.7934 3.01624 14.9032 3.01729ZM14.801 18.854C15.7565 18.8522 16.6896 19.1403 17.589 19.5167C18.091 22.1106 18.0965 24.851 17.5585 27.4329C15.7215 27.5993 13.8805 27.5993 12.0435 27.4329C11.5065 24.8553 11.5115 22.1199 12.0109 19.5298C12.9095 19.1487 13.8441 18.8557 14.801 18.854Z" fill="black"/>
</svg>
