<svg id="Calque_1" data-name="Calque 1" xmlns="http://www.w3.org/2000/svg" viewBox="0 0 355.37 355.37"><defs><style>.cls-1{fill:#96a087;}.cls-2{fill:none;stroke:#fff;stroke-miterlimit:10;}.cls-3{fill:#fff;}</style></defs><title>logo svg</title><circle class="cls-1" cx="177.69" cy="177.69" r="177.69"/><path class="cls-2" d="M221.29,248.5s-.85,38.11,4.71,50.95c0,0,2.95,5.57-2.38,24.41,0,0-14,27.83.41,30.83,0,0,14.39,3.43,11.39,14.56,0,0-9,17.22,22.27,9.25l-12,5.31s-3.85,22.27,12,0l-3.86,9.9s4.71.38,6,14.51c0,0,11.13,33.82,57.81-8.57,0,0,66.37-74.08-10.28-107.9,0,0-35.11,0-42,31.68,0,0-15,39,18.84,65.52,0,0,30,10.27,45,59.95,0,0-4.71,54.81-21,67.65,0,0-9.42,21-2.57,21,0,0,15.41-7.28-8.14-42,0,0-28.69-42.39-91.63-24.84,0,0-16.19-38-27.14-30.74,0,0-6.46,23.62,25.12,31.33l-22.13-28.6,11.44,21.64" transform="translate(-124.04 -231.46)"/><path class="cls-3" d="M238.45,466.53S214.3,477,217.54,494.2c0,0,17.46,7.21,20.91-25.12l-16.19,17.41,10.45-5.78" transform="translate(-124.04 -231.46)"/><path class="cls-3" d="M246.88,466.53s-30.83-33.26-10.44-37.73c0,0,15.17-3.49,10.44,36.05l-12.18-27.1,9.2,7.21" transform="translate(-124.04 -231.46)"/><path class="cls-3" d="M242.13,530.85a5.62,5.62,0,0,1-1.43,3.69,11.18,11.18,0,0,1-5.39,3.51,15.75,15.75,0,0,1-4.87.8,13.5,13.5,0,0,1-1.7-.1,32.58,32.58,0,0,1-9.26-2.4,12,12,0,0,1-7.26,2.54q-4.53,0-5.6-2.51a3.45,3.45,0,0,1-.25-1.39,2.67,2.67,0,0,1,.8-1.7,4.45,4.45,0,0,1,3.48-1.39,8.12,8.12,0,0,1,2.64.41,22.54,22.54,0,0,1,2.93,1.36c1.15.63,2,1.08,2.57,1.36a21.75,21.75,0,0,0,3.16-4.16,57,57,0,0,0,2.87-5.22c.83-1.7,1.88-3.6,3.15-5.68a35.8,35.8,0,0,1,3.9-5.32l2-2.27a35.26,35.26,0,0,0-6-.48,34.06,34.06,0,0,0-7.27.87,14.27,14.27,0,0,0-8.35,4.66,6.44,6.44,0,0,0-1.77,4,3.18,3.18,0,0,0,2.47,3.31,5,5,0,0,0,3.06,0,4,4,0,0,0,1.68-1,5.84,5.84,0,0,0,1.19-1.51,2.83,2.83,0,0,0,.36-1.1.32.32,0,0,1,.35-.36c.23,0,.36.18.38.48v0a5.13,5.13,0,0,1-2.71,3.86,6,6,0,0,1-2.85.77l-1.81-.32q-3.69-1.29-3.69-4.8a7.08,7.08,0,0,1,2.12-4.73c2.28-2.55,5.61-4.14,10-4.76a46.23,46.23,0,0,1,6.66-.46,33.57,33.57,0,0,1,7,.77,5.93,5.93,0,0,1,1.71-1.11,4.41,4.41,0,0,1,.85-.28.3.3,0,0,1,.16,0c.14,0,.17.08.09.23a2.68,2.68,0,0,1-.77.64,1.94,1.94,0,0,0-.78.77q4.73,1.22,6.81,3.48a3.79,3.79,0,0,1,1.12,2.55,5.23,5.23,0,0,1-.77,2.63,6.2,6.2,0,0,1-3.27,2.62,13.9,13.9,0,0,1-4.55,1,16.67,16.67,0,0,1,4.14,1.94A5.44,5.44,0,0,1,242.13,530.85ZM218,535.69c-2.71-1.3-4.43-2.08-5.14-2.33a6.28,6.28,0,0,0-2.14-.38,2.11,2.11,0,0,0-1.69.74,2.21,2.21,0,0,0-.63,1.36,2.65,2.65,0,0,0,.28,1.17c.51,1,1.58,1.56,3.2,1.56A10,10,0,0,0,218,535.69ZM230,537.88a10.05,10.05,0,0,0,6.61-2.23c2-1.57,3-3.28,3-5.11s-1-3.34-3-4.31a21.82,21.82,0,0,0-2.73-1c-1.08-.33-1.94-.62-2.6-.85s-1-.45-1.14-.66c0-.44.34-.67,1-.7.44,0,1.12,0,2,.11a22.13,22.13,0,0,0,2.33.08,5.76,5.76,0,0,0,2.35-.69,7.79,7.79,0,0,0,2.35-1.76,5.08,5.08,0,0,0,1.56-3.27q0-3.27-6.12-4.69-1.85,2.54-6.61,10.73t-7.34,11l-1.32,1.25a29.5,29.5,0,0,0,8.45,2.09A11.08,11.08,0,0,0,230,537.88Z" transform="translate(-124.04 -231.46)"/><path class="cls-3" d="M245.75,532.18a6.75,6.75,0,0,0-.49,2.64,2.52,2.52,0,0,0,.43,1.55,1.46,1.46,0,0,0,1.24.57q3.16,0,5.74-6c.16-.37.36-.53.59-.48a.16.16,0,0,1,.14.17,20.7,20.7,0,0,1-2.37,4.56,5.26,5.26,0,0,1-4.38,2.43,3.37,3.37,0,0,1-2.37-.9,3.22,3.22,0,0,1-1-2.47,8.44,8.44,0,0,1,.75-3.32,12.66,12.66,0,0,1,2-3.27,7.81,7.81,0,0,1,3-2.21,3.85,3.85,0,0,1,1.53-.35,2.4,2.4,0,0,1,1.36.42,1.39,1.39,0,0,1,.59,1.08q0,2.08-2.51,4a7.81,7.81,0,0,1-2.15,1.06A7.46,7.46,0,0,1,245.75,532.18Zm5.84-5.57c0-.46-.19-.69-.56-.69-.65,0-1.63.79-2.95,2.39a18.07,18.07,0,0,0-2.09,3.27,5.38,5.38,0,0,0,1.72-.41,6.65,6.65,0,0,0,2-1.12A4.6,4.6,0,0,0,251.59,526.61Z" transform="translate(-124.04 -231.46)"/><path class="cls-3" d="M261.57,530.94a14.55,14.55,0,0,0-1.37,3.31A9.3,9.3,0,0,0,260,536c0,.45.17.68.52.68s1-.41,1.64-1.22a24.08,24.08,0,0,0,2.81-4.63c.1-.2.2-.32.32-.34s.28,0,.28.2a1.09,1.09,0,0,1-.11.42c-2.13,4.32-3.93,6.47-5.39,6.47a1.86,1.86,0,0,1-1.63-1,2.67,2.67,0,0,1-.32-1.39,8.22,8.22,0,0,1,.35-2.12q-2.79,4.49-4.8,4.48a1.57,1.57,0,0,1-1-.35,2.84,2.84,0,0,1-1-2.5,10.83,10.83,0,0,1,2.95-6.92,7.7,7.7,0,0,1,4.11-2.54,4.74,4.74,0,0,1,1.25-.17,3.68,3.68,0,0,1,2.71,1.11.65.65,0,0,1,.21.73.49.49,0,0,1-.59.28,1.6,1.6,0,0,0-1.67-1.26c-1,0-2.22.79-3.68,2.37a19,19,0,0,0-2.34,3.27,7.75,7.75,0,0,0-1.35,3.62q0,1.35.87,1.35,2.08,0,5.46-6.4a8.1,8.1,0,0,1,1.11-1.75,1.51,1.51,0,0,1,1.15-.47,5.37,5.37,0,0,1,.71.1,2.35,2.35,0,0,0,.85,0A13.65,13.65,0,0,0,261.57,530.94Z" transform="translate(-124.04 -231.46)"/><path class="cls-3" d="M263.73,535.51A7.4,7.4,0,0,1,265,531.9c-.37,0-.47-.19-.31-.56l.63-1.22c.79-1.5,1.43-2.78,1.95-3.82a1.34,1.34,0,0,1,1.35-.73h2.12a9.54,9.54,0,0,0-2.52,3.49q-1.28,2.6-2,4.07a5.89,5.89,0,0,0-.7,2.25,1.69,1.69,0,0,0,.26,1.07.88.88,0,0,0,.71.32c.44,0,1.06-.47,1.85-1.39q1.85-2.16,5.18-9.08a1.4,1.4,0,0,1,1.36-.73h1.88a5.47,5.47,0,0,0-1.2,1.21,18,18,0,0,0-1.2,2.23,27,27,0,0,0-2.33,5.53,4.41,4.41,0,0,0-.11.91c0,.74.26,1.13.77,1.18q1.88,0,4.62-5.81c.14-.32.28-.45.42-.38s.21.16.21.27a2.6,2.6,0,0,1-.32.8c-.2.42-.41.83-.6,1.22s-.5.94-.91,1.62A10.83,10.83,0,0,1,275,536a3.72,3.72,0,0,1-2.66,1.53,1.77,1.77,0,0,1-1.79-1.15,3.58,3.58,0,0,1-.21-1.32,7.32,7.32,0,0,1,.35-2c-1.69,3-3.26,4.45-4.7,4.45a1.93,1.93,0,0,1-2.19-1.57A.77.77,0,0,1,263.73,535.51Z" transform="translate(-124.04 -231.46)"/><path class="cls-3" d="M276.49,534.75q0-2.88,2.78-9.67h-1.8a.22.22,0,0,1-.23-.19.62.62,0,0,1,0-.38.29.29,0,0,1,.27-.2h2.08c.84-1.83,1.61-3.36,2.33-4.59a8.11,8.11,0,0,1,2-2.48,2.83,2.83,0,0,1,1.3-.65,1.79,1.79,0,0,1,.57.07,1.58,1.58,0,0,1,.8,1.59,7,7,0,0,1-.8,2.9c-.53,1.14-1.05,2.19-1.56,3.16h1.67a.22.22,0,0,1,.22.2.51.51,0,0,1,0,.38.28.28,0,0,1-.26.19h-2a25.27,25.27,0,0,1-4.62,5.74l-.8,3.55a3.37,3.37,0,0,0-.11.88,1.89,1.89,0,0,0,.24.89.82.82,0,0,0,.77.45,2.81,2.81,0,0,0,1.32-.41q1.67-1.26,3.69-5.26a.64.64,0,0,1,.33-.38c.13,0,.2,0,.23.09a1.06,1.06,0,0,1-.11.5,33.17,33.17,0,0,1-1.81,3.41q-1.87,3-4,3a2.24,2.24,0,0,1-1.77-.8A3,3,0,0,1,276.49,534.75Zm6.54-9.67H281.4q-.42,1-1.88,4.63A26.61,26.61,0,0,0,283,525.08Zm.45-.77q2.29-4.09,2.3-5.7,0-.69-.24-.69-.39,0-1.17,1.11a39.24,39.24,0,0,0-2.63,5.28Z" transform="translate(-124.04 -231.46)"/><path class="cls-3" d="M285.85,532.18a6.75,6.75,0,0,0-.49,2.64,2.52,2.52,0,0,0,.44,1.55,1.46,1.46,0,0,0,1.23.57q3.17,0,5.74-6c.16-.37.36-.53.59-.48s.15.24,0,.52a25.71,25.71,0,0,1-2.27,4.21,5.26,5.26,0,0,1-4.38,2.43,3.34,3.34,0,0,1-2.36-.9,3.22,3.22,0,0,1-1-2.47,8.44,8.44,0,0,1,.75-3.32,12.43,12.43,0,0,1,2-3.27,7.71,7.71,0,0,1,2.95-2.21,3.92,3.92,0,0,1,1.53-.35,2.4,2.4,0,0,1,1.36.42,1.39,1.39,0,0,1,.59,1.08q0,2.08-2.5,4a7.74,7.74,0,0,1-2.16,1.06A7.46,7.46,0,0,1,285.85,532.18Zm5.84-5.57c0-.46-.18-.69-.56-.69-.64,0-1.63.79-2.95,2.39a18.07,18.07,0,0,0-2.09,3.27,5.33,5.33,0,0,0,1.72-.41,6.53,6.53,0,0,0,2-1.12A4.6,4.6,0,0,0,291.69,526.61Zm-2.12-2.78-.12-.05a.2.2,0,0,1-.09-.18.36.36,0,0,1,.07-.22,9.33,9.33,0,0,1,1-.8c.62-.47,1.28-1,2-1.45L294,520a1.61,1.61,0,0,1,.95-.37,1.86,1.86,0,0,1,.84.18c.24.11.36.26.36.43a1,1,0,0,1-.1.47c-.12.28-1.16.87-3.13,1.76A19.56,19.56,0,0,1,289.57,523.83Z" transform="translate(-124.04 -231.46)"/><path class="cls-3" d="M330.4,526.12q-4.27,7.51-4.27,9.81c0,.61.21.91.66.91q1.77,0,4.76-6c.14-.32.28-.45.42-.38s.21.16.21.27a.9.9,0,0,1-.14.42,24.46,24.46,0,0,1-3.12,5.13,3.52,3.52,0,0,1-2.53,1.41,2.18,2.18,0,0,1-1.93-1,1.94,1.94,0,0,1-.35-1.24,6.26,6.26,0,0,1,.35-1.89,18.3,18.3,0,0,1,1.91-3.62,2.18,2.18,0,0,0,.38-1c0-.25-.2-.37-.59-.37s-1.15.53-2.26,1.57a24.14,24.14,0,0,0-4.84,6.89.91.91,0,0,1-.47.43,4.18,4.18,0,0,1-1,.12,2.56,2.56,0,0,0-1,.18q.56-1.12,2.19-4.56c1.95-4.06,3.22-6.38,3.83-7a1.53,1.53,0,0,1,1.14-.41,5.43,5.43,0,0,1,.72.1,2.09,2.09,0,0,0,.85,0q-1.29.71-4.21,6.54a28.79,28.79,0,0,1,3-3.21,17.19,17.19,0,0,1,3.22-2.23,6.89,6.89,0,0,1,2.75-1A1.12,1.12,0,0,1,330.4,526.12Z" transform="translate(-124.04 -231.46)"/><path class="cls-3" d="M340.35,530.94a14.55,14.55,0,0,0-1.37,3.31,9.3,9.3,0,0,0-.23,1.77c0,.45.17.68.52.68s1-.41,1.64-1.22a24.08,24.08,0,0,0,2.81-4.63c.1-.2.2-.32.32-.34s.28,0,.28.2a1.09,1.09,0,0,1-.11.42c-2.13,4.32-3.93,6.47-5.39,6.47a1.86,1.86,0,0,1-1.63-1,2.67,2.67,0,0,1-.32-1.39,8.22,8.22,0,0,1,.35-2.12c-1.85,3-3.46,4.48-4.8,4.48a1.57,1.57,0,0,1-1-.35,2.84,2.84,0,0,1-1-2.5,10.8,10.8,0,0,1,3-6.92,7.64,7.64,0,0,1,4.1-2.54,4.74,4.74,0,0,1,1.25-.17,3.68,3.68,0,0,1,2.71,1.11.65.65,0,0,1,.21.73.49.49,0,0,1-.59.28,1.6,1.6,0,0,0-1.67-1.26c-1,0-2.22.79-3.68,2.37a18.46,18.46,0,0,0-2.33,3.27,7.68,7.68,0,0,0-1.36,3.62q0,1.35.87,1.35,2.09,0,5.46-6.4a8.1,8.1,0,0,1,1.11-1.75,1.51,1.51,0,0,1,1.15-.47,5.37,5.37,0,0,1,.71.1,2.4,2.4,0,0,0,.86,0A13.13,13.13,0,0,0,340.35,530.94Z" transform="translate(-124.04 -231.46)"/><path class="cls-3" d="M342.85,534.75q0-2.88,2.79-9.67h-1.81a.22.22,0,0,1-.23-.19.55.55,0,0,1,0-.38.27.27,0,0,1,.26-.2H346q1.26-2.74,2.34-4.59a8,8,0,0,1,2-2.48,2.83,2.83,0,0,1,1.3-.65,1.92,1.92,0,0,1,.58.07,1.6,1.6,0,0,1,.8,1.59,7.16,7.16,0,0,1-.8,2.9c-.54,1.14-1.06,2.19-1.57,3.16h1.67c.12,0,.19.07.23.2a.57.57,0,0,1,0,.38.27.27,0,0,1-.26.19h-2a25,25,0,0,1-4.62,5.74l-.8,3.55a3.85,3.85,0,0,0-.11.88,1.8,1.8,0,0,0,.25.89.8.8,0,0,0,.76.45,2.75,2.75,0,0,0,1.32-.41c1.12-.84,2.34-2.59,3.69-5.26a.64.64,0,0,1,.33-.38c.13,0,.2,0,.23.09a1.06,1.06,0,0,1-.11.5,31.27,31.27,0,0,1-1.81,3.41q-1.87,3-4,3a2.24,2.24,0,0,1-1.77-.8A3,3,0,0,1,342.85,534.75Zm6.54-9.67h-1.63q-.42,1-1.88,4.63A26.61,26.61,0,0,0,349.39,525.08Zm.46-.77q2.29-4.09,2.29-5.7,0-.69-.24-.69T350.73,519a38.4,38.4,0,0,0-2.62,5.28Z" transform="translate(-124.04 -231.46)"/><path class="cls-3" d="M349.46,535.51a7.33,7.33,0,0,1,1.29-3.61c-.37,0-.48-.19-.31-.56l.62-1.22c.79-1.5,1.44-2.78,1.95-3.82a1.36,1.36,0,0,1,1.36-.73h2.12a9.31,9.31,0,0,0-2.52,3.49c-.85,1.73-1.5,3.09-2,4.07a6,6,0,0,0-.69,2.25,1.63,1.63,0,0,0,.26,1.07.87.87,0,0,0,.71.32c.44,0,1.06-.47,1.84-1.39q1.85-2.16,5.19-9.08a1.38,1.38,0,0,1,1.35-.73h1.88a5.69,5.69,0,0,0-1.2,1.21,18,18,0,0,0-1.2,2.23,27.56,27.56,0,0,0-2.33,5.53,4.36,4.36,0,0,0-.1.91c0,.74.25,1.13.76,1.18,1.25,0,2.8-1.94,4.63-5.81.14-.32.28-.45.42-.38a.31.31,0,0,1,.2.27,2.47,2.47,0,0,1-.31.8l-.61,1.22c-.19.4-.5.94-.9,1.62a11.62,11.62,0,0,1-1.13,1.62,3.74,3.74,0,0,1-2.66,1.53,1.77,1.77,0,0,1-1.79-1.15,3.58,3.58,0,0,1-.21-1.32,7,7,0,0,1,.35-2c-1.7,3-3.26,4.45-4.7,4.45a1.93,1.93,0,0,1-2.19-1.57A.77.77,0,0,1,349.46,535.51Z" transform="translate(-124.04 -231.46)"/><path class="cls-3" d="M367.79,523.58c0,1-.66,2-2,3,.46,0,1.08,0,1.86,0s1.76-.06,2.94-.18a1.26,1.26,0,0,1,.07.56,3.54,3.54,0,0,1-.42,1.34c-.28.59-.52,1.1-.74,1.53s-.43.83-.63,1.22-.42.85-.66,1.4-.45,1.07-.61,1.53c-.58,1.77-.49,2.65.28,2.65q1.46,0,4.31-5.81c.16-.3.3-.42.4-.35a.33.33,0,0,1,.16.26,4.68,4.68,0,0,1-.45,1.08c-.31.61-.63,1.25-1,1.9a13.26,13.26,0,0,1-1.63,2.26,3.58,3.58,0,0,1-2.54,1.6c-.91,0-1.53-.55-1.88-1.64a3.12,3.12,0,0,1-.11-.94,5.22,5.22,0,0,1,.4-1.67,19.18,19.18,0,0,1,1.27-2.54c.58-1,.91-1.58,1-1.75a1.36,1.36,0,0,0,.1-.51c0-.72-.93-1.1-2.78-1.14l-.42,1.11c-1.46,3.82-2.86,6.39-4.21,7.69-.23.2-.34.13-.34-.21a.56.56,0,0,1,.07-.25,26.79,26.79,0,0,0,3.37-6.08,33,33,0,0,0,2-6.68c.14-.72.47-1.08,1-1.08s.88.33,1.11,1A2.34,2.34,0,0,1,367.79,523.58Z" transform="translate(-124.04 -231.46)"/><path class="cls-3" d="M373.67,532.18a6.94,6.94,0,0,0-.49,2.64,2.52,2.52,0,0,0,.44,1.55,1.46,1.46,0,0,0,1.23.57c2.11,0,4-2,5.74-6,.16-.37.36-.53.59-.48a.16.16,0,0,1,.14.17,21.14,21.14,0,0,1-2.36,4.56,5.27,5.27,0,0,1-4.38,2.43,3.37,3.37,0,0,1-2.37-.9,3.22,3.22,0,0,1-1-2.47A8.59,8.59,0,0,1,372,531a12.43,12.43,0,0,1,2-3.27,7.74,7.74,0,0,1,3-2.21,3.85,3.85,0,0,1,1.53-.35,2.37,2.37,0,0,1,1.35.42,1.36,1.36,0,0,1,.59,1.08q0,2.08-2.5,4a7.74,7.74,0,0,1-2.16,1.06A7.33,7.33,0,0,1,373.67,532.18Zm5.84-5.57c0-.46-.18-.69-.55-.69-.65,0-1.64.79-3,2.39a18,18,0,0,0-2.08,3.27,5.44,5.44,0,0,0,1.72-.41,6.6,6.6,0,0,0,2-1.12A4.57,4.57,0,0,0,379.51,526.61Z" transform="translate(-124.04 -231.46)"/><path class="cls-3" d="M382.3,531.78c-.19.54-.34,1.06-.47,1.56a5.93,5.93,0,0,0-.19,1.5,2.89,2.89,0,0,0,.34,1.39,1.19,1.19,0,0,0,1.12.64,3.18,3.18,0,0,0,2.43-1.69,34.76,34.76,0,0,0,2.51-4.29c.18-.33.36-.45.52-.38a.27.27,0,0,1,.07.36l-.44,1c-.22.49-.38.84-.48,1l-.56,1a7.81,7.81,0,0,1-.7,1.12c-.19.24-.46.55-.8.93a4.26,4.26,0,0,1-.95.86,4.35,4.35,0,0,1-2.3.76,2.59,2.59,0,0,1-1.67-.47,1.84,1.84,0,0,1-.71-1,4.4,4.4,0,0,1-.12-1q0-.42,0-1.08a10.48,10.48,0,0,1,.44-2.16c.22-.69.34-1.09.36-1.18a58.43,58.43,0,0,1,4.78-11.43,15.36,15.36,0,0,1,1.62-2.34,3.32,3.32,0,0,1,2.33-1.26c.54,0,.9.39,1.08,1.15a3.55,3.55,0,0,1,0,.52,7.46,7.46,0,0,1-.84,3,31.38,31.38,0,0,1-7.13,10.44C382.59,530.91,382.48,531.23,382.3,531.78Zm4.1-6.63a34,34,0,0,0,2.56-4.68,8.81,8.81,0,0,0,.82-2.62c0-.47-.09-.7-.25-.7s-.67.46-1.32,1.37a36.45,36.45,0,0,0-2.63,4.94q-1.65,3.57-2.69,6.25A28,28,0,0,0,386.4,525.15Z" transform="translate(-124.04 -231.46)"/><path class="cls-3" d="M389.67,531.78c-.19.54-.34,1.06-.47,1.56a5.93,5.93,0,0,0-.19,1.5,2.9,2.9,0,0,0,.35,1.39,1.16,1.16,0,0,0,1.11.64,3.18,3.18,0,0,0,2.44-1.69,36.16,36.16,0,0,0,2.5-4.29c.18-.33.36-.45.52-.38a.26.26,0,0,1,.07.36l-.43,1c-.22.49-.39.84-.49,1l-.56,1a7.91,7.91,0,0,1-.69,1.12l-.8.93a4.51,4.51,0,0,1-1,.86,4.35,4.35,0,0,1-2.3.76,2.56,2.56,0,0,1-1.66-.47,1.81,1.81,0,0,1-.72-1,4.4,4.4,0,0,1-.12-1c0-.28,0-.64,0-1.08a10.47,10.47,0,0,1,.43-2.16c.22-.69.34-1.09.37-1.18a49.51,49.51,0,0,1,2.27-6.3,47.76,47.76,0,0,1,2.51-5.13A14.79,14.79,0,0,1,394.5,517a3.32,3.32,0,0,1,2.34-1.26c.53,0,.89.39,1.07,1.15a2.55,2.55,0,0,1,0,.52,7.46,7.46,0,0,1-.84,3A31.38,31.38,0,0,1,390,530.82C390,530.91,389.86,531.23,389.67,531.78Zm4.1-6.63a33,33,0,0,0,2.56-4.68,8.51,8.51,0,0,0,.82-2.62c0-.47-.08-.7-.24-.7s-.68.46-1.33,1.37a35.56,35.56,0,0,0-2.62,4.94q-1.65,3.57-2.7,6.25A27.43,27.43,0,0,0,393.77,525.15Z" transform="translate(-124.04 -231.46)"/><path class="cls-3" d="M397,532.18a6.94,6.94,0,0,0-.48,2.64,2.52,2.52,0,0,0,.43,1.55,1.46,1.46,0,0,0,1.24.57q3.16,0,5.74-6c.16-.37.36-.53.59-.48a.16.16,0,0,1,.14.17,14.4,14.4,0,0,1-.79,1.83,15.07,15.07,0,0,1-1.58,2.73,5.26,5.26,0,0,1-4.38,2.43,3.37,3.37,0,0,1-2.37-.9,3.22,3.22,0,0,1-1-2.47,8.44,8.44,0,0,1,.75-3.32,12.39,12.39,0,0,1,2-3.27,7.81,7.81,0,0,1,3-2.21,3.85,3.85,0,0,1,1.53-.35,2.4,2.4,0,0,1,1.36.42,1.39,1.39,0,0,1,.59,1.08q0,2.08-2.51,4a7.81,7.81,0,0,1-2.15,1.06A7.45,7.45,0,0,1,397,532.18Zm5.85-5.57c0-.46-.19-.69-.56-.69-.65,0-1.63.79-2.95,2.39a18.07,18.07,0,0,0-2.09,3.27,5.38,5.38,0,0,0,1.72-.41,6.65,6.65,0,0,0,2-1.12A4.6,4.6,0,0,0,402.82,526.61Z" transform="translate(-124.04 -231.46)"/></svg>