<svg width="30" height="30" viewBox="0 0 30 30" fill="none" xmlns="http://www.w3.org/2000/svg">
<path d="M10.0113 0.0625983C9.95861 0.0970091 9.8356 0.331003 9.73015 0.57876C9.51926 1.07428 9.26151 1.36333 8.74601 1.67991C8.43554 1.87261 8.40625 1.90702 8.40625 2.12036C8.40625 2.34059 8.42968 2.36812 8.78116 2.58147C9.26151 2.87052 9.49583 3.14581 9.75358 3.72391C9.93518 4.12307 9.9879 4.19189 10.1226 4.19189C10.3452 4.19189 10.3862 4.13684 10.5561 3.70326C10.7436 3.21463 11.0775 2.81546 11.4934 2.58835C11.8859 2.36812 11.9738 2.25113 11.9269 2.01713C11.8976 1.88637 11.8039 1.7969 11.5696 1.67991C11.1243 1.44591 10.8022 1.08116 10.5737 0.537467C10.3511 0.0213053 10.2281 -0.0888093 10.0113 0.0625983ZM10.8432 1.92078L11.0658 2.1066L10.7729 2.36124C10.6147 2.49888 10.4214 2.73288 10.3335 2.8774L10.1871 3.14581L9.73601 2.61588L9.28495 2.09284L9.49583 1.90702C9.61299 1.81067 9.81216 1.58356 9.93518 1.4115L10.1578 1.09492L10.3921 1.4115C10.521 1.59044 10.726 1.81755 10.8432 1.92078Z" fill="#CF3085"/>
<path d="M21.9153 0.131361C18.9336 0.571819 16.4908 3.19392 15.8054 6.68318C15.6414 7.51592 15.6297 9.31905 15.7761 10.0967C16.11 11.8104 16.7544 13.2075 17.7503 14.3774C19.9587 16.972 23.2978 17.5708 26.0979 15.8709C27.4569 15.045 28.7105 13.4552 29.3256 11.7691C30.3273 9.05064 29.9876 5.67838 28.4821 3.44856C28.2829 3.15263 28.0954 3.07693 27.9548 3.2421C27.8377 3.37974 27.8728 3.5105 28.1833 4.03355C28.5816 4.71488 28.9683 5.69903 29.1616 6.51112C29.3022 7.13052 29.3139 7.29569 29.3139 8.45878C29.3139 9.62186 29.2963 9.79391 29.1557 10.4202C28.6754 12.5261 27.3808 14.3912 25.7464 15.3547C24.7622 15.9328 23.9128 16.1737 22.7881 16.1737C21.2709 16.1737 19.9704 15.6644 18.793 14.6045C18.4181 14.2742 17.6917 13.4208 17.6917 13.3245C17.6917 13.2832 17.9436 13.2694 18.3536 13.2969C18.9218 13.3245 19.1269 13.3726 19.9177 13.6686L20.8257 13.9989H21.8508C22.7823 13.9989 22.917 13.9852 23.3095 13.8337C23.5496 13.7374 23.9773 13.4965 24.2585 13.2969C24.6744 13.001 24.8267 12.9322 25.0317 12.9322C25.2016 12.9322 25.3598 12.8771 25.4886 12.7739C25.7112 12.6018 25.9514 12.1063 25.9514 11.831C25.9514 11.7278 25.8928 11.5145 25.8225 11.3424L25.6878 11.0396L25.8225 10.7299C25.8928 10.5647 25.9514 10.3445 25.9514 10.2481C25.9514 10.1449 25.8928 9.93156 25.8225 9.7595L25.6878 9.45669L25.8225 9.14699C25.8928 8.98182 25.9514 8.76159 25.9514 8.66524C25.9514 8.56201 25.8928 8.34866 25.8225 8.17661L25.6878 7.87379L25.8225 7.56409C25.8928 7.39892 25.9514 7.17869 25.9514 7.08234C25.9456 6.80017 25.7464 6.35972 25.5355 6.18078C25.3422 6.01561 25.3129 6.01561 24.0651 6.01561H22.7881V4.81123C22.7881 4.15054 22.7588 3.48986 22.7237 3.34533C22.6007 2.8154 22.0383 2.40247 21.5872 2.49882C21.3529 2.55388 21.0541 2.78787 20.8901 3.04251C20.7788 3.22145 20.7671 3.35909 20.7378 4.62541C20.7027 5.92614 20.691 6.03625 20.5562 6.39413C20.2633 7.13052 19.3026 8.38307 18.834 8.63771C18.4122 8.86482 17.803 8.94741 16.9536 8.89923C16.0866 8.84418 16.1217 8.89923 16.2213 7.79809C16.4264 5.4788 17.3461 3.56556 18.8926 2.22354C20.0407 1.22562 21.306 0.750755 22.7881 0.750755C24.2233 0.750755 25.3773 1.17745 26.6134 2.16848C26.9824 2.46441 27.0996 2.52635 27.1816 2.4713C27.5858 2.21666 27.2343 1.75555 26.1213 1.06733C24.8618 0.28965 23.2743 -0.0682222 21.9153 0.131361ZM22.0441 3.25586C22.2257 3.42103 22.2609 3.77891 22.2609 5.63709C22.2609 7.31634 22.2726 7.47463 22.3722 7.66044C22.4835 7.86003 22.4835 7.86691 22.3722 8.10778C22.2199 8.44501 22.2257 8.96117 22.3839 9.26399C22.5011 9.4911 22.5069 9.50486 22.4015 9.63562C22.337 9.72509 22.2902 9.91779 22.2726 10.1793C22.2492 10.5097 22.2726 10.6267 22.3781 10.8331C22.5011 11.074 22.5069 11.0878 22.4015 11.2185C22.337 11.308 22.2902 11.5007 22.2726 11.7622C22.2492 12.0926 22.2726 12.2096 22.3722 12.4023C22.5596 12.7601 22.7647 12.884 23.2275 12.9322L23.6375 12.9735L23.4032 13.0974C22.9228 13.3451 22.4425 13.4277 21.6751 13.3933C21.0424 13.3658 20.8491 13.3313 20.2457 13.1111C19.1445 12.7051 18.9043 12.6569 18.0432 12.6569C17.1352 12.6569 17.2523 12.7395 16.8716 11.831C16.6255 11.2598 16.3795 10.3858 16.3151 9.88338L16.274 9.55992H17.1703C18.6289 9.55992 19.1679 9.35346 19.8415 8.54136C20.3746 7.89444 20.9487 6.97911 21.101 6.53177C21.2065 6.20831 21.2299 5.96055 21.2592 4.80435C21.2885 3.59997 21.306 3.4348 21.4056 3.30404C21.5345 3.13886 21.8801 3.11134 22.0441 3.25586ZM25.2485 6.73823C25.3129 6.81394 25.3656 6.96535 25.3656 7.08234C25.3656 7.19934 25.3129 7.35075 25.2485 7.42645C25.143 7.55033 25.0551 7.56409 24.0944 7.56409C23.1103 7.56409 23.0517 7.55721 22.9228 7.41269C22.7412 7.2131 22.7471 6.92405 22.9404 6.74512C23.0869 6.61436 23.1747 6.60059 24.112 6.60059C25.0551 6.60059 25.143 6.61436 25.2485 6.73823ZM25.2485 8.32113C25.4125 8.51383 25.4066 8.89923 25.2367 9.03688C25.1313 9.12634 24.9146 9.14699 24.0769 9.14699C23.1162 9.14699 23.0341 9.14011 22.917 9.00935C22.7354 8.80977 22.7471 8.50695 22.9404 8.32801C23.0869 8.19725 23.1747 8.18349 24.112 8.18349C25.0551 8.18349 25.143 8.19725 25.2485 8.32113ZM25.2836 9.93156C25.3305 10.0073 25.3656 10.1656 25.3656 10.2894C25.3656 10.6886 25.2485 10.7299 24.0651 10.7299C23.0986 10.7299 23.0107 10.7161 22.9053 10.5922C22.7354 10.3927 22.753 10.083 22.9463 9.90403C23.0986 9.76639 23.1572 9.7595 24.153 9.78015C25.1079 9.8008 25.2075 9.81456 25.2836 9.93156ZM25.1489 11.425C25.3246 11.5351 25.3656 11.6177 25.3656 11.8792C25.3656 12.2715 25.2426 12.3128 24.0651 12.3128C23.0986 12.3128 23.0107 12.299 22.9053 12.1751C22.7354 11.9756 22.753 11.6659 22.9404 11.4938C23.0869 11.363 23.1747 11.3493 24.0593 11.3493C24.6685 11.3493 25.0669 11.3768 25.1489 11.425Z" fill="#CF3085"/>
<path d="M6.02234 3.3454C5.97548 3.41422 5.85246 3.66886 5.75873 3.91662C5.45998 4.65989 4.95619 5.23111 4.3411 5.5064C4.19465 5.56834 4.01892 5.6991 3.96034 5.79545C3.85489 5.96062 3.85489 5.98815 3.94276 6.13956C3.98963 6.22902 4.2298 6.41484 4.46998 6.5456C5.03234 6.86218 5.48341 7.38523 5.74702 8.02527C5.98134 8.60337 6.07506 8.73413 6.23909 8.73413C6.40897 8.73413 6.5027 8.58961 6.7253 8.03215C7.00062 7.31641 7.58056 6.67636 8.14878 6.45614C8.42997 6.34602 8.55298 6.19461 8.55298 5.98127C8.55298 5.76792 8.43583 5.63028 8.14293 5.49952C7.81488 5.35499 7.34038 4.95582 7.11192 4.64613C7.00062 4.49472 6.82488 4.16438 6.7253 3.91662C6.49684 3.35916 6.40311 3.2284 6.23909 3.2284C6.16879 3.2284 6.06921 3.28346 6.02234 3.3454ZM6.7663 5.14853C6.88932 5.29993 7.14121 5.54769 7.32867 5.6991L7.67429 5.9675L7.38725 6.18085C7.04749 6.44237 6.57299 7.01359 6.38554 7.39899L6.24494 7.68116L5.96376 7.21317C5.6943 6.76583 5.22566 6.25655 4.93862 6.09826C4.75702 6.00191 4.76874 5.96062 4.9972 5.82986C5.2901 5.66469 5.86418 5.01776 6.06335 4.62548L6.23323 4.28137L6.39139 4.57731C6.47926 4.7356 6.64914 4.99712 6.7663 5.14853Z" fill="#CF3085"/>
<path d="M0.609276 7.41952C0.474543 7.48834 0.304662 7.65351 0.228508 7.77739C0.0937748 8.0045 0.0879168 8.05956 0.0703429 9.42223C0.052769 10.6954 0.058627 10.84 0.152354 10.9157C0.234366 10.9845 1.42939 11.0051 6.01618 11.0051C11.6984 11.0051 11.7746 11.0051 11.8917 10.8675C12.0382 10.6954 12.0382 10.6266 11.8917 10.4546C11.7746 10.3169 11.6984 10.3169 6.18021 10.3169H0.585844V9.32588C0.585844 8.78219 0.603418 8.27979 0.620992 8.21785C0.71472 7.93568 0.913891 7.90815 2.66542 7.90815H4.33495L4.40524 7.7361C4.45796 7.59158 4.45211 7.5434 4.36424 7.4264C4.26465 7.29564 4.1885 7.28876 2.55412 7.28876C1.01933 7.28876 0.826021 7.30252 0.609276 7.41952Z" fill="#CF3085"/>
<path d="M8.17771 7.44022C8.06055 7.63292 8.06055 7.66733 8.17771 7.79809C8.25972 7.89444 8.64049 7.9082 11.5343 7.9082C14.973 7.9082 14.9378 7.9082 14.9378 7.59851C14.9378 7.28881 14.973 7.28881 11.5343 7.28881H8.26558L8.17771 7.44022Z" fill="#CF3085"/>
<path d="M13.1277 10.4477C12.9754 10.6266 12.9754 10.6954 13.1218 10.8675C13.2273 10.9914 13.3151 11.0051 14.0357 11.0051C14.8792 11.0051 15.0549 10.957 15.0549 10.7092C15.0549 10.372 14.9964 10.3513 14.0942 10.3307C13.3034 10.31 13.239 10.3169 13.1277 10.4477Z" fill="#CF3085"/>
<path d="M0.0937275 12.0789C0.0117159 12.1752 0 13.0768 0 20.9844C0 28.892 0.0117159 29.7935 0.0937275 29.8899C0.175739 29.9862 1.61094 30 14.9964 30C28.3819 30 29.8171 29.9862 29.8991 29.8899C30.0924 29.6697 29.9928 28.4584 29.7292 27.8734C29.5476 27.4536 29.0731 26.9306 28.6865 26.7241C28.3291 26.5245 28.3116 26.5245 27.2396 26.5245H26.1558L25.8102 26.731C25.5993 26.8549 25.3474 27.0957 25.1366 27.3573L24.8085 27.7839L24.4805 27.3573C24.2696 27.0888 24.0235 26.8549 23.8068 26.731L23.4612 26.5245H22.3774H21.2937L20.9071 26.7447C20.5498 26.9512 20.1573 27.3573 19.9874 27.7014C19.923 27.8252 19.9112 27.8252 19.7882 27.6257C19.5598 27.2609 19.2024 26.903 18.8685 26.7103C18.5463 26.5314 18.517 26.5245 17.4568 26.5245H16.373L15.9864 26.7447C15.6291 26.9512 15.2249 27.371 15.0667 27.7014C15.0023 27.8252 14.9964 27.8252 14.9027 27.6601C14.6976 27.316 14.27 26.8824 13.9478 26.7034C13.6315 26.5314 13.5846 26.5245 12.5361 26.5245C11.464 26.5245 11.4465 26.5245 11.1126 26.7241C10.767 26.9168 10.4448 27.2471 10.2046 27.6257C10.0816 27.8252 10.0699 27.8252 10.0054 27.7014C9.83553 27.3573 9.44305 26.9512 9.08571 26.7447L8.69909 26.5245H7.61536H6.53164L6.18602 26.731C5.97513 26.8549 5.72324 27.0957 5.51235 27.3573L5.1843 27.7839L4.86212 27.371C4.63366 27.0682 4.43448 26.8893 4.15916 26.7379L3.77839 26.5245H2.72396C1.71053 26.5245 1.65781 26.5314 1.34733 26.7034C1.16574 26.7998 0.925559 26.9787 0.8084 27.1026C0.691241 27.2196 0.585797 27.316 0.562365 27.316C0.544791 27.316 0.533075 26.5039 0.538933 25.5059L0.556507 23.7028L1.81011 23.6822C2.61851 23.6753 3.09301 23.6409 3.14573 23.5927C3.23946 23.4964 3.24532 23.2417 3.15159 23.1316C3.09887 23.0697 2.7181 23.049 1.80426 23.049H0.527217V18.9128V14.7698L0.761536 14.8111C0.890412 14.8317 1.20088 14.99 1.44692 15.1621C2.04443 15.5819 2.4252 15.7126 2.9407 15.6713C3.35076 15.6369 3.4152 15.6025 4.45792 14.9487C4.67466 14.818 4.81525 14.7835 5.1433 14.7835C5.5885 14.7835 5.72324 14.8386 6.34418 15.2928C7.12915 15.8572 7.93755 15.8159 8.8221 15.1621L9.28488 14.8248H9.84725C10.3862 14.8248 10.4213 14.8317 10.7259 15.0588C11.423 15.5819 11.5812 15.6438 12.1846 15.6507C12.7938 15.6507 12.6591 15.7058 13.8131 14.99C14.2934 14.6941 14.8148 14.6941 15.2834 14.9831C16.209 15.5543 16.332 15.6163 16.6484 15.6576C17.0233 15.7058 17.1639 15.63 17.1639 15.3754C17.1639 15.1621 17.0701 15.0864 16.7186 15.0313C16.5488 15.0038 16.2793 14.8868 16.0743 14.7491C15.2717 14.1986 15.1253 14.1435 14.5571 14.1435C13.9888 14.1435 13.8424 14.1986 13.0398 14.7491C12.413 15.1827 11.8682 15.1414 11.1536 14.6184C10.6322 14.233 10.1167 14.0678 9.63636 14.1297C9.2966 14.171 9.16187 14.233 8.17187 14.8524C7.74424 15.1139 7.17016 15.107 6.76596 14.8248C5.76424 14.1435 5.38348 14.0196 4.72738 14.1641C4.48135 14.2192 4.21188 14.3568 3.88383 14.5908C3.05786 15.1758 2.48964 15.1896 1.78668 14.6528C1.41763 14.3706 1.11887 14.2261 0.74982 14.1435L0.527217 14.0953V13.1181C0.527217 12.1064 0.497928 11.9687 0.287041 11.9687C0.228461 11.9687 0.140591 12.0169 0.0937275 12.0789ZM3.73153 27.2127C4.10058 27.3435 4.56922 27.8184 4.74496 28.2382C4.82111 28.424 4.87383 28.6993 4.87969 28.947L4.89141 29.3462H2.72396H0.556507L0.568223 28.9883C0.597513 28.2175 1.09544 27.433 1.69295 27.2196C2.07372 27.082 3.3449 27.0751 3.73153 27.2127ZM8.65222 27.2127C9.27317 27.433 9.75938 28.1762 9.79453 28.9746L9.8121 29.3462L7.63294 29.3668L5.44791 29.3806V29.126C5.44791 28.7337 5.55336 28.3483 5.75253 28.0042C6.15673 27.3022 6.54921 27.1164 7.62122 27.1095C8.11329 27.1095 8.45305 27.1439 8.65222 27.2127ZM13.8014 27.3297C14.3579 27.6738 14.7035 28.3276 14.7035 29.0503V29.3806H12.5361H10.3686V29.0847C10.3686 28.2382 10.8197 27.5087 11.5226 27.2058C11.6867 27.137 11.9854 27.1164 12.6239 27.1301C13.4499 27.1439 13.5202 27.1577 13.8014 27.3297ZM18.7338 27.3504C19.2669 27.6945 19.5598 28.2313 19.6125 28.947L19.6418 29.3806H17.4626H15.2893V29.0434C15.2893 28.4102 15.5529 27.8184 15.9923 27.4811C16.4199 27.1508 16.6015 27.1095 17.5446 27.1233C18.394 27.1439 18.435 27.1508 18.7338 27.3504ZM23.549 27.2884C24.0938 27.5912 24.4746 28.2382 24.5273 28.9677L24.5625 29.3806L22.3716 29.3668L20.1807 29.3462L20.1983 28.9746C20.2217 28.4377 20.4092 27.9835 20.7489 27.6257C21.1707 27.1852 21.4167 27.1095 22.436 27.1301C23.1566 27.1439 23.3264 27.1714 23.549 27.2884ZM28.2764 27.2127C28.8974 27.433 29.3953 28.1969 29.4246 28.9883L29.4363 29.3462H27.2689H25.1014L25.1131 28.947C25.119 28.6993 25.1717 28.424 25.2479 28.2382C25.4177 27.839 25.8922 27.3435 26.2379 27.2196C26.6186 27.082 27.8898 27.0751 28.2764 27.2127Z" fill="#CF3085"/>
<path d="M3.91938 17.9974C3.54447 18.1282 3.19885 18.5824 3.11684 19.0298C2.94696 19.9451 3.4976 20.7778 4.27671 20.7778C5.00896 20.7778 5.50103 20.1997 5.50689 19.3463C5.50689 18.6994 5.12612 18.1213 4.59305 17.963C4.28843 17.8736 4.25914 17.8736 3.91938 17.9974ZM4.67506 18.6857C4.74535 18.7407 4.84494 18.8784 4.8918 18.9885C5.20227 19.6905 4.58133 20.42 3.98382 20.0552C3.73778 19.9107 3.63234 19.6905 3.63234 19.3463C3.63234 19.0917 3.66749 19.0022 3.83151 18.8095C3.99553 18.6168 4.07169 18.5755 4.28843 18.5755C4.42902 18.5755 4.60476 18.6237 4.67506 18.6857Z" fill="#CF3085"/>
<path d="M9.38512 17.9563C8.66459 18.1628 8.24282 19.1401 8.54743 19.9177C8.68216 20.2687 8.98678 20.6128 9.24453 20.7161C9.57843 20.8468 10.0881 20.7643 10.3634 20.544C10.6387 20.3169 10.8965 19.7663 10.8965 19.4016C10.8965 18.4587 10.1467 17.7361 9.38512 17.9563ZM10.0119 18.679C10.1057 18.734 10.2228 18.8923 10.2814 19.0299C10.422 19.3741 10.3575 19.6838 10.0939 19.9522C9.90648 20.1449 9.85376 20.1724 9.6253 20.138C9.31483 20.0967 9.10394 19.8902 9.01607 19.5392C8.85205 18.8923 9.47885 18.3486 10.0119 18.679Z" fill="#CF3085"/>
<path d="M14.5916 17.9907C14.0058 18.2041 13.625 18.9818 13.7656 19.67C14.0116 20.8744 15.3531 21.1841 15.9565 20.1724C16.431 19.3809 16.0561 18.1972 15.2594 17.9632C14.9489 17.8737 14.9138 17.8737 14.5916 17.9907ZM15.3355 18.6858C15.4058 18.7409 15.5054 18.8785 15.5523 18.9887C15.8627 19.6906 15.2418 20.4201 14.6443 20.0554C14.3983 19.9109 14.2928 19.6906 14.2928 19.3465C14.2928 19.0919 14.328 19.0024 14.492 18.8097C14.656 18.617 14.7322 18.5757 14.9489 18.5757C15.0895 18.5757 15.2652 18.6239 15.3355 18.6858Z" fill="#CF3085"/>
<path d="M19.9001 17.977C19.5955 18.0871 19.2967 18.3899 19.1503 18.7271C18.9687 19.1469 19.0097 19.7732 19.244 20.1724C19.8532 21.1841 21.1947 20.8744 21.4408 19.67C21.5872 18.968 21.2006 18.2041 20.5914 17.9839C20.2633 17.8737 20.1989 17.8737 19.9001 17.977ZM20.7144 18.8097C20.8784 19.0024 20.9135 19.0919 20.9135 19.3465C20.9135 19.6906 20.8081 19.9109 20.5621 20.0554C19.9645 20.4201 19.3436 19.6906 19.6541 18.9887C19.7771 18.6996 19.9645 18.5757 20.2574 18.5757C20.4742 18.5757 20.5503 18.617 20.7144 18.8097Z" fill="#CF3085"/>
<path d="M25.2481 17.9906C24.6096 18.2246 24.2581 18.9954 24.4514 19.7593C24.6037 20.3787 25.0607 20.7778 25.6172 20.7778C26.449 20.7778 27.0348 19.8212 26.7712 18.8921C26.572 18.1764 25.8691 17.7634 25.2481 17.9906ZM25.9862 18.6857C26.1561 18.8164 26.3025 19.1192 26.3025 19.3326C26.3025 19.4152 26.2615 19.5872 26.2088 19.718C25.9042 20.4681 24.9552 20.1928 24.9552 19.3601C24.9552 19.0917 24.9845 19.0091 25.1544 18.8095C25.3184 18.6168 25.4004 18.5755 25.5937 18.5755C25.7285 18.5755 25.9042 18.6237 25.9862 18.6857Z" fill="#CF3085"/>
<path d="M5.42466 23.1936C5.33679 23.345 5.36022 23.5239 5.47152 23.6134C5.50667 23.6409 6.18034 23.6685 6.97702 23.6685C8.48252 23.6685 8.55282 23.6547 8.55282 23.3588C8.55282 23.0628 8.48252 23.0491 6.96531 23.0491C5.55354 23.0491 5.51253 23.0559 5.42466 23.1936Z" fill="#CF3085"/>
<path d="M10.6961 23.1936C10.6083 23.345 10.6317 23.5239 10.743 23.6134C10.7782 23.6409 11.4518 23.6685 12.2485 23.6685C13.754 23.6685 13.8243 23.6547 13.8243 23.3588C13.8243 23.0628 13.754 23.0491 12.2368 23.0491C10.825 23.0491 10.784 23.0559 10.6961 23.1936Z" fill="#CF3085"/>
<path d="M16.0625 23.1316C16.0215 23.1798 15.9922 23.2762 15.9922 23.3588C15.9922 23.6547 16.0566 23.6685 17.6148 23.6685C19.0149 23.6685 19.0969 23.6616 19.1555 23.5377C19.2375 23.3519 19.2316 23.2831 19.1203 23.1592C19.0442 23.0628 18.8216 23.0491 17.5797 23.0491C16.5311 23.0491 16.1152 23.0697 16.0625 23.1316Z" fill="#CF3085"/>
<path d="M21.4171 23.1592C21.3058 23.2831 21.2999 23.3519 21.3819 23.5377C21.4405 23.6616 21.5225 23.6685 22.9226 23.6685C24.4808 23.6685 24.5452 23.6547 24.5452 23.3588C24.5452 23.0628 24.4749 23.0491 22.9577 23.0491C21.7158 23.0491 21.4932 23.0628 21.4171 23.1592Z" fill="#CF3085"/>
<path d="M26.7832 23.1316C26.7422 23.1798 26.7129 23.2762 26.7129 23.3588C26.7129 23.6547 26.7832 23.6685 28.3004 23.6685C29.5423 23.6685 29.7649 23.6547 29.841 23.5583C29.9582 23.4276 29.9582 23.3932 29.841 23.2005C29.7532 23.0491 29.7356 23.0491 28.3004 23.0491C27.2518 23.0491 26.8359 23.0697 26.7832 23.1316Z" fill="#CF3085"/>
</svg>
