<svg width="30" height="30" viewBox="0 0 30 30" fill="none" xmlns="http://www.w3.org/2000/svg">
<path d="M14.0332 3.16992C12.5039 3.38086 11.168 4.04883 10.043 5.17969C8.625 6.59765 7.89844 8.33789 7.89258 10.3125C7.89258 11.5898 8.19141 12.709 8.81836 13.7637C8.99414 14.0566 9.11719 14.2969 9.09375 14.2969C8.98828 14.2969 5.79492 14.6719 4.125 14.877C3.08789 15.0059 1.77539 15.1582 1.20117 15.2168C0.515625 15.2812 0.134766 15.3457 0.0820312 15.3984C0.0117188 15.4629 0 16.4062 0 21.0937C0 26.1211 0.0117188 26.7187 0.09375 26.8008C0.175781 26.8828 1.61133 26.8945 15 26.8945C28.3887 26.8945 29.8242 26.8828 29.9062 26.8008C29.9883 26.7187 30 26.1211 30 21.0996C30 15.8262 29.9941 15.4805 29.9004 15.3984C29.8301 15.3398 29.543 15.2871 29.0332 15.2402C28.6172 15.1992 27.3105 15.0527 26.1328 14.9062C24.0586 14.6543 21.0059 14.2969 20.9004 14.2969C20.8711 14.2969 20.9062 14.209 20.9766 14.1035C21.2695 13.6699 21.75 12.5801 21.8906 12.0352C22.0957 11.2617 22.1484 9.95508 22.0078 9.16406C21.498 6.2168 19.3418 3.9082 16.5234 3.27539C15.9316 3.14648 14.625 3.08789 14.0332 3.16992ZM16.1777 3.7207C18.1992 4.0957 19.8691 5.34961 20.8125 7.18945C21.9785 9.45703 21.8438 11.9473 20.4375 13.9922C18.627 16.623 15.1875 17.543 12.1582 16.207C11.25 15.8027 10.1836 14.8887 9.5625 13.9863C8.4082 12.3047 8.10352 10.2598 8.71289 8.29101C9.43945 5.95898 11.4609 4.14258 13.7871 3.7207C14.3789 3.60937 15.5859 3.61523 16.1777 3.7207ZM9.99609 15.2812C10.998 16.2773 12.0996 16.8691 13.5352 17.1797C14.1914 17.3262 15.6094 17.3496 16.2305 17.2324C17.7188 16.9512 18.9902 16.2891 19.998 15.2812L20.5137 14.7598L21.4043 14.8535C21.8965 14.9062 23.4668 15.0937 24.9023 15.2695C26.3379 15.4453 27.9492 15.6328 28.4941 15.6914L29.4727 15.7852V17.5312C29.4727 18.9844 29.4609 19.2773 29.3906 19.2773C29.3438 19.2773 29.1738 19.1836 29.0039 19.0664C28.5586 18.7617 28.3184 18.6738 27.8906 18.6738C27.4629 18.6738 27.2227 18.7617 26.7832 19.0605C26.6191 19.1777 26.4023 19.2832 26.3027 19.3066C26.0039 19.3711 25.6289 19.2832 25.3301 19.0781C24.8027 18.7148 24.668 18.668 24.1992 18.668C23.7363 18.6621 23.748 18.6621 22.9863 19.1309C22.7578 19.2715 22.6406 19.3066 22.3477 19.3066C22.0254 19.3066 21.9551 19.2832 21.6738 19.0898C21.2109 18.7734 20.9414 18.6738 20.5078 18.6738C20.0801 18.6738 19.8398 18.7617 19.4004 19.0605C18.8848 19.418 18.4395 19.418 17.9238 19.0605C17.4844 18.7617 17.2441 18.6738 16.8164 18.6738C16.4062 18.668 16.248 18.7266 15.6504 19.1074C15.375 19.2773 15.2812 19.3066 14.9707 19.3066C14.6484 19.3066 14.5664 19.2773 14.291 19.0957C14.1152 18.9785 13.8926 18.8437 13.7988 18.7969C13.3242 18.5508 12.6914 18.627 12.1758 18.9844C11.5312 19.4355 11.0801 19.4355 10.4414 18.9844C10.0547 18.709 9.63867 18.6152 9.1582 18.6914C8.81836 18.75 8.71289 18.7969 8.31445 19.084C7.81055 19.4473 7.33008 19.4062 6.68555 18.9375C6.16406 18.5566 5.43164 18.5508 4.89258 18.9258C4.16016 19.4297 3.71484 19.4531 3.14648 19.0195C2.83008 18.7793 2.53125 18.6797 2.10352 18.6797C1.66992 18.6797 1.35938 18.791 0.9375 19.0957C0.796875 19.1953 0.650391 19.2773 0.603516 19.2773C0.539062 19.2773 0.527344 18.9609 0.527344 17.5312V15.7852L1.28906 15.7148C1.71094 15.6738 3.00586 15.5215 4.17773 15.375C5.34375 15.2344 6.86719 15.0469 7.55859 14.9707C9.20508 14.7891 9.20508 14.7832 9.35156 14.7773C9.43945 14.7715 9.64453 14.9297 9.99609 15.2812ZM2.60742 19.2891C2.70703 19.3359 2.94141 19.4766 3.12891 19.5937C3.45117 19.7871 3.51562 19.8047 3.92578 19.8047C4.39453 19.8047 4.49414 19.7695 5.13281 19.3711C5.64258 19.0488 6.06445 19.1016 6.73242 19.5586C7.02539 19.7637 7.07812 19.7754 7.55273 19.793C8.09766 19.8105 8.13867 19.7988 8.7832 19.3887C9.05859 19.2187 9.15234 19.1895 9.46289 19.1895C9.77344 19.1895 9.86719 19.2187 10.1426 19.3887C10.7461 19.7695 10.834 19.8047 11.3086 19.8047C11.7773 19.8047 11.8711 19.7695 12.4688 19.3945C12.6914 19.2539 12.8613 19.1895 13.084 19.1777C13.4062 19.1484 13.5176 19.1953 14.1621 19.5996C14.4082 19.752 14.5078 19.7754 14.9414 19.793L15.4395 19.8105L15.9375 19.5117C16.7168 19.0312 16.9688 19.043 17.8066 19.5703C18.1699 19.793 18.2051 19.8047 18.6621 19.8047C19.1074 19.8047 19.1602 19.793 19.4883 19.5879C20.0801 19.2246 20.2324 19.1602 20.5078 19.1602C20.7832 19.1602 20.9355 19.2246 21.5273 19.5879C21.8555 19.793 21.9082 19.8047 22.3535 19.8047C22.8105 19.8047 22.8457 19.793 23.209 19.5703C23.8008 19.1953 23.9531 19.1426 24.3105 19.1777C24.5332 19.2012 24.709 19.2715 24.9258 19.4121C25.459 19.7695 25.5703 19.8047 26.0566 19.8047C26.4844 19.8047 26.543 19.7871 26.8359 19.5996C27.7031 19.0488 28.0195 19.0254 28.7051 19.4707C28.9395 19.6172 29.209 19.7578 29.3027 19.7754L29.4727 19.8164V22.2129V24.6094L29.1738 24.3809C28.793 24.0937 28.3945 23.9648 27.8848 23.9648C27.2227 23.9648 26.5547 24.2871 26.209 24.7734L26.0508 24.9961L25.8691 24.7559C25.0781 23.7129 23.2852 23.7129 22.5469 24.75L22.3652 25.0137L22.207 24.7969C21.8262 24.2812 21.3516 24.0234 20.6895 23.9824C19.9277 23.9297 19.2305 24.2227 18.8555 24.75L18.6738 25.0137L18.5156 24.7969C18.1465 24.2812 17.666 24.0293 16.9922 23.9824C16.2363 23.9297 15.5566 24.2168 15.1641 24.7617L14.9824 25.0195L14.8828 24.8555C14.7363 24.6152 14.3145 24.2578 14.0098 24.1172C13.793 24.0176 13.6289 23.9941 13.1543 23.9941C12.6445 23.9941 12.5273 24.0117 12.2461 24.1465C11.9238 24.2988 11.5898 24.5742 11.4082 24.8379L11.3145 24.9785L11.0156 24.6504C10.834 24.4512 10.582 24.2578 10.3828 24.1582C10.084 24.0117 9.98438 23.9941 9.46289 23.9941C8.95312 23.9941 8.83594 24.0117 8.55469 24.1465C8.2207 24.3105 7.97461 24.5098 7.74609 24.8145L7.61719 24.9902L7.48828 24.8145C7.25977 24.5098 7.01367 24.3105 6.67969 24.1465C6.39844 24.0117 6.28125 23.9941 5.77148 23.9941C5.25 23.9941 5.15039 24.0117 4.85156 24.1582C4.65234 24.2578 4.40039 24.4512 4.21875 24.6504L3.91992 24.9785L3.82617 24.8379C3.64453 24.5742 3.31055 24.2988 2.98828 24.1465C2.70703 24.0117 2.58984 23.9941 2.08008 23.9941C1.42383 23.9941 1.13672 24.0879 0.744141 24.4336L0.527344 24.6211V22.2187V19.8164L0.703125 19.7754C0.796875 19.7578 1.03711 19.6289 1.23633 19.5C1.44141 19.3711 1.6582 19.2422 1.72266 19.2129C1.89844 19.1367 2.40234 19.1836 2.60742 19.2891ZM2.77734 24.6035C3.29883 24.8379 3.62695 25.3418 3.67969 25.998L3.70898 26.3672H2.10938H0.515625L0.539062 25.9687C0.603516 24.8145 1.72852 24.1289 2.77734 24.6035ZM6.41016 24.5742C6.96094 24.8027 7.38281 25.4531 7.38281 26.0742V26.3672H5.79492H4.20117L4.23047 25.9687C4.2832 25.2656 4.68164 24.7148 5.27344 24.5215C5.57812 24.4219 6.10547 24.4453 6.41016 24.5742ZM10.1777 24.6152C10.6992 24.8672 11.0742 25.4941 11.0742 26.1152V26.3672H9.49219H7.91016V26.0566C7.91016 25.3652 8.34961 24.7148 8.94141 24.5273C9.30469 24.4102 9.83203 24.4512 10.1777 24.6152ZM13.8516 24.6152C14.1621 24.7559 14.4902 25.1016 14.6191 25.4121C14.6719 25.5352 14.7305 25.7988 14.748 25.998L14.7832 26.3672H13.1836H11.584L11.6133 25.9336C11.6484 25.4297 11.8184 25.084 12.1699 24.7852C12.6152 24.4219 13.2949 24.3516 13.8516 24.6152ZM17.5723 24.6328C18.0703 24.8906 18.3691 25.3594 18.4336 26.0098L18.4746 26.3672H16.8457H15.2168L15.252 26.0156C15.3867 24.7617 16.5059 24.0937 17.5723 24.6328ZM20.959 24.5215C21.5684 24.7031 21.9727 25.1602 22.0957 25.8047C22.207 26.4082 22.3125 26.3672 20.4961 26.3672H18.9082L18.9434 26.0566C18.9961 25.5352 19.1074 25.2539 19.3945 24.9492C19.5879 24.7383 19.7461 24.627 19.9805 24.5508C20.373 24.4102 20.5723 24.4102 20.959 24.5215ZM24.6504 24.5215C25.2773 24.709 25.6816 25.1777 25.7695 25.8164C25.8457 26.4199 25.9922 26.3672 24.1875 26.3672H22.5996L22.6348 25.9863C22.6816 25.5234 22.8281 25.1719 23.0801 24.9141C23.5137 24.4805 24.0586 24.3457 24.6504 24.5215ZM28.6348 24.6445C29.1562 24.8965 29.4609 25.4062 29.4668 26.0273L29.4727 26.3672H27.8906H26.3086V26.1152C26.3086 25.7812 26.4375 25.3594 26.625 25.0781C26.7832 24.8379 27.1875 24.5684 27.498 24.4863C27.8086 24.4102 28.2891 24.4746 28.6348 24.6445Z" fill="#CF3085"/>
<path d="M14.8359 5.95907C14.5371 6.22274 13.2246 8.12118 12.6855 9.07625C12.123 10.0782 11.8359 10.8692 11.8359 11.4317C11.8359 12.961 12.9492 14.2677 14.4961 14.5372C16.3652 14.8595 18.1641 13.3419 18.1641 11.4493C18.1641 10.67 17.666 9.545 16.6113 7.93953C15.8145 6.72664 15.1406 5.85946 15 5.85946C14.9766 5.85946 14.9004 5.90633 14.8359 5.95907ZM15.3574 7.01961C16.6172 8.74813 17.4785 10.295 17.6367 11.127C17.7539 11.754 17.4375 12.7091 16.9277 13.2364C15.5801 14.6368 13.2305 14.1798 12.5215 12.3809C12.3691 11.9942 12.3047 11.4552 12.3633 11.1212C12.5273 10.2716 13.4355 8.65438 14.7832 6.82039C14.8887 6.67977 14.9824 6.56844 15 6.56844C15.0176 6.56844 15.1758 6.76766 15.3574 7.01961Z" fill="#CF3085"/>
<path d="M16.5059 11.2383C16.4473 11.2969 16.4062 11.4375 16.4062 11.5488C16.4004 11.9824 16.0195 12.5508 15.5742 12.7793C15.3926 12.873 15.3516 12.9258 15.3516 13.0723C15.3516 13.3769 15.5977 13.3769 16.0664 13.0664C16.6582 12.6738 17.1387 11.5254 16.8398 11.2266C16.7227 11.1035 16.623 11.1094 16.5059 11.2383Z" fill="#CF3085"/>
<path d="M1.41797 22.1016C1.37695 22.1426 1.34766 22.2129 1.34766 22.2656C1.34766 22.4707 1.4707 22.5 2.41406 22.5H3.33984L3.375 22.3535C3.45117 22.043 3.42187 22.0312 2.41406 22.0312C1.77539 22.0312 1.46484 22.0547 1.41797 22.1016Z" fill="#CF3085"/>
<path d="M4.53539 22.1133C4.51782 22.1602 4.51196 22.2598 4.52367 22.3359C4.54125 22.4707 4.54125 22.4707 5.50219 22.4707C6.3518 22.4707 6.46899 22.459 6.52758 22.3652C6.57446 22.2949 6.57446 22.2363 6.52758 22.1602C6.46899 22.0723 6.34008 22.0605 5.51391 22.043C4.72875 22.0313 4.56469 22.043 4.53539 22.1133Z" fill="#CF3085"/>
<path d="M7.67578 22.1484C7.62891 22.2305 7.62891 22.3008 7.67578 22.3828C7.73438 22.4941 7.79883 22.5 8.67773 22.5H9.60938L9.67969 22.3535C9.72656 22.2422 9.72656 22.1895 9.66797 22.1191C9.60938 22.0488 9.42773 22.0312 8.66602 22.0312C7.79883 22.0312 7.73438 22.0371 7.67578 22.1484Z" fill="#CF3085"/>
<path d="M10.8516 22.1016C10.8164 22.1368 10.7812 22.2188 10.7812 22.2716C10.7812 22.4766 10.916 22.5059 11.8711 22.4884L12.8027 22.4708V22.2657V22.0606L11.8652 22.043C11.1855 22.0313 10.9043 22.0489 10.8516 22.1016Z" fill="#CF3085"/>
<path d="M13.969 22.1133C13.9514 22.1602 13.9455 22.2598 13.9573 22.3359C13.9748 22.4707 13.9748 22.4707 14.9358 22.4707C15.7854 22.4707 15.9026 22.459 15.9612 22.3652C16.008 22.2949 16.008 22.2363 15.9612 22.1602C15.9026 22.0723 15.7737 22.0605 14.9475 22.043C14.1623 22.0313 13.9983 22.043 13.969 22.1133Z" fill="#CF3085"/>
<path d="M17.1209 22.1309C17.0857 22.1895 17.0857 22.2949 17.115 22.3652C17.1619 22.5 17.1854 22.5 18.1053 22.5H19.0428L19.1131 22.3535C19.16 22.2422 19.16 22.1895 19.1014 22.1191C19.0428 22.0488 18.8611 22.0312 18.0994 22.0312C17.2732 22.0312 17.1678 22.043 17.1209 22.1309Z" fill="#CF3085"/>
<path d="M20.2852 22.1016C20.25 22.1368 20.2148 22.2188 20.2148 22.2716C20.2148 22.4766 20.3496 22.5059 21.3047 22.4884L22.2363 22.4708V22.2657V22.0606L21.2988 22.043C20.6191 22.0313 20.3379 22.0489 20.2852 22.1016Z" fill="#CF3085"/>
<path d="M23.402 22.1777C23.3317 22.4707 23.4254 22.5 24.4039 22.5C25.3825 22.5 25.4762 22.4707 25.4059 22.1777L25.3707 22.0312H24.4039H23.4371L23.402 22.1777Z" fill="#CF3085"/>
<path d="M26.5666 22.1133C26.5491 22.1602 26.5432 22.2598 26.5549 22.3359C26.5725 22.4707 26.5725 22.4707 27.5334 22.4707C28.383 22.4707 28.5002 22.459 28.5588 22.3652C28.6057 22.2949 28.6057 22.2363 28.5588 22.1602C28.5002 22.0723 28.3713 22.0605 27.5452 22.043C26.76 22.0313 26.5959 22.043 26.5666 22.1133Z" fill="#CF3085"/>
<path d="M1.27146 4.75793C0.66794 5.51379 0.0937214 6.53918 0.0234089 7.00207C-0.0586223 7.57043 0.339815 8.27941 0.896456 8.56652C1.65232 8.94738 2.62497 8.6134 3.01169 7.83996C3.31638 7.23059 3.18747 6.63293 2.5488 5.6427C1.75192 4.41223 1.62302 4.32434 1.27146 4.75793ZM1.89841 5.57824C2.03903 5.78332 2.27341 6.15832 2.40817 6.41613C2.72458 7.00207 2.75388 7.34777 2.50192 7.72863C1.957 8.54895 0.632784 8.24426 0.539034 7.2716C0.521456 7.04309 0.544893 6.91418 0.66794 6.64465C0.837862 6.26965 1.52341 5.21496 1.58786 5.21496C1.61716 5.21496 1.75192 5.37902 1.89841 5.57824Z" fill="#CF3085"/>
<path d="M27.9022 4.99218C27.4803 5.56054 27.0702 6.25195 26.9295 6.60937C26.6131 7.4414 27.0877 8.40234 27.9432 8.65429C28.3299 8.76562 28.7752 8.73047 29.1034 8.5664C29.6542 8.28515 30.0584 7.57031 29.9823 7.00781C29.9002 6.39843 28.7401 4.55859 28.412 4.52343C28.2772 4.50586 28.2069 4.57031 27.9022 4.99218ZM28.7928 5.73047C29.5311 6.83203 29.6366 7.30664 29.2557 7.78125C28.6522 8.53711 27.4803 8.23242 27.328 7.2832C27.2987 7.07812 27.3221 6.96679 27.4745 6.63867C27.6268 6.3164 28.3475 5.15625 28.4002 5.15625C28.4061 5.15625 28.5819 5.41406 28.7928 5.73047Z" fill="#CF3085"/>
<path d="M4.5415 9.02355C4.13135 9.55675 3.65088 10.3419 3.51611 10.6993C3.20556 11.5431 3.50439 12.3165 4.30127 12.7267C4.60596 12.8849 5.25049 12.8966 5.58447 12.7501C6.14697 12.504 6.51611 11.9474 6.52783 11.3263C6.53369 11.004 6.50439 10.9044 6.229 10.3595C6.05908 10.0314 5.74267 9.51573 5.52588 9.22862C5.01025 8.54308 4.92236 8.5255 4.5415 9.02355ZM5.33838 9.84972C5.78369 10.5118 6.03564 11.045 6.03564 11.3087C6.03564 11.5489 5.86572 11.9415 5.70752 12.0821C5.22119 12.5157 4.40674 12.4161 4.05517 11.8829C3.83838 11.5489 3.84424 11.1564 4.06689 10.6993C4.2251 10.3829 4.91064 9.31651 4.95752 9.31651C4.96924 9.31651 5.13916 9.55675 5.33838 9.84972Z" fill="#CF3085"/>
<path d="M24.6617 8.97656C24.2925 9.43945 23.9234 10.0254 23.6831 10.5352C23.4077 11.1094 23.396 11.5254 23.6304 11.9883C23.9234 12.5684 24.3921 12.8496 25.0484 12.8555C26.2495 12.8555 26.9585 11.7012 26.437 10.5879C26.232 10.1484 25.8335 9.50977 25.4468 9.00586C25.107 8.56641 24.9898 8.56641 24.6617 8.97656ZM25.441 9.87305C25.9214 10.5879 26.1031 10.9922 26.0972 11.3496C26.0913 12.0762 25.3179 12.5625 24.6265 12.2754C24.3335 12.1523 24.2046 12.0293 24.0757 11.748C23.9058 11.3789 23.9351 11.1387 24.2163 10.5938C24.5152 10.0078 25.0191 9.29297 25.0777 9.35742C25.1011 9.38086 25.2652 9.61523 25.441 9.87305Z" fill="#CF3085"/>
</svg>
