<svg width="40" height="40" viewBox="0 0 40 40" fill="none" xmlns="http://www.w3.org/2000/svg">
<g clip-path="url(#clip0_665_573)">
<path opacity="0.984" fill-rule="evenodd" clip-rule="evenodd" d="M8.24219 1.13266C8.42633 1.11991 8.6086 1.13293 8.78907 1.17173C10.309 2.28302 12.0017 2.98615 13.8672 3.2811C15.06 3.39855 16.2319 3.29438 17.3828 2.9686C18.2886 2.61988 19.148 2.19019 19.9609 1.67954C22.5288 3.46477 25.2892 3.81633 28.2422 2.73423C29.2656 2.31385 30.2291 1.79302 31.1328 1.17173C31.3151 1.11964 31.4974 1.11964 31.6797 1.17173C32.867 2.70026 34.0259 4.24974 35.1563 5.82016C35.2084 5.97641 35.2084 6.13266 35.1563 6.28891C33.4114 9.23181 33.2031 12.2787 34.5313 15.4295C37.1351 19.5846 37.1872 23.7774 34.6875 28.0077C33.1275 30.397 31.0312 32.1549 28.3984 33.2811C27.1698 33.7601 25.9198 34.1767 24.6484 34.5311C23.3719 35.0516 22.2911 35.8459 21.4063 36.9139C20.9919 37.522 20.5882 38.1341 20.1953 38.7499C20.0131 38.802 19.8307 38.802 19.6484 38.7499C18.6316 36.6652 17.0431 35.2069 14.8828 34.3749C11.7607 33.6932 9.06539 32.2479 6.79688 30.0389C3.61918 26.5466 2.70772 22.5363 4.0625 18.0077C4.44419 17.114 4.8869 16.2546 5.39063 15.4295C6.69307 12.2829 6.48475 9.23602 4.76563 6.28891C4.71354 6.13266 4.71354 5.97641 4.76563 5.82016C5.91134 4.24522 7.07019 2.68272 8.24219 1.13266ZM29.3359 5.42954C29.8211 5.40539 29.9903 5.61373 29.8438 6.05454C27.9966 6.88976 26.0564 7.21528 24.0234 7.0311C23.7517 6.81966 23.7257 6.58528 23.9453 6.32798C25.5673 6.3648 27.1558 6.15646 28.7109 5.70298C28.9434 5.64791 29.1517 5.55677 29.3359 5.42954ZM22.2266 5.97641C22.4883 5.97685 22.7227 6.05498 22.9297 6.21079C23.0363 6.66429 22.8541 6.8596 22.3828 6.79673C21.8543 6.59166 21.8022 6.31823 22.2266 5.97641ZM19.1016 10.5077C22.9523 10.3427 25.856 11.9052 27.8125 15.1952C29.4677 18.6713 29.1552 21.9525 26.875 25.0389C24.3289 27.8926 21.1909 28.8691 17.4609 27.9686C13.7749 26.7038 11.6525 24.1388 11.0938 20.2733C10.8952 16.4157 12.4448 13.5121 15.7422 11.5624C16.8094 11.0112 17.9291 10.6596 19.1016 10.5077ZM7.46094 17.9295C7.7933 17.8869 7.97563 18.0302 8.00782 18.3592C7.9693 18.5795 7.87813 18.7748 7.73438 18.9452C7.41004 19.1874 7.16264 19.1224 6.99219 18.7499C7.09944 18.4437 7.25569 18.1702 7.46094 17.9295ZM6.75782 19.8045C6.98188 19.7721 7.15115 19.8502 7.26563 20.0389C6.82418 23.4781 7.94399 26.2906 10.625 28.4764C10.7026 28.9453 10.5073 29.1145 10.0391 28.9842C7.17407 26.6652 6.01522 23.6834 6.5625 20.0389C6.61703 19.9459 6.68214 19.8677 6.75782 19.8045Z" fill="#CF3085"/>
<path opacity="0.967" fill-rule="evenodd" clip-rule="evenodd" d="M19.7266 14.3361C19.9056 14.3161 20.0749 14.3421 20.2344 14.4142C20.6849 15.4064 21.1667 16.383 21.6797 17.3439C22.7189 17.5147 23.7606 17.671 24.8047 17.8127C25.0697 17.8869 25.1609 18.0562 25.0781 18.3205C24.3467 19.0781 23.5914 19.8072 22.8125 20.508C22.7604 20.7163 22.7604 20.9246 22.8125 21.133C22.9558 21.9925 23.099 22.8519 23.2422 23.7111C23.2382 23.8361 23.2122 23.9533 23.1641 24.0627C23.0078 24.1148 22.8516 24.1148 22.6953 24.0627C21.7838 23.5809 20.8724 23.0992 19.961 22.6174C19.0495 23.0992 18.1381 23.5809 17.2266 24.0627C17.0493 24.1219 16.88 24.1088 16.7188 24.0236C16.849 22.8517 16.9792 21.6799 17.1094 20.508C16.3305 19.8072 15.5753 19.0781 14.8438 18.3205C14.7917 18.1902 14.7917 18.0601 14.8438 17.9299C15.9719 17.711 17.1047 17.5026 18.2422 17.3049C18.7792 16.335 19.274 15.3454 19.7266 14.3361Z" fill="#CF3085"/>
</g>
<defs>
<clipPath id="clip0_665_573">
<rect width="40" height="40" fill="white"/>
</clipPath>
</defs>
</svg>
