<svg width="40" height="40" viewBox="0 0 40 40" fill="none" xmlns="http://www.w3.org/2000/svg">
<path opacity="0.871" fill-rule="evenodd" clip-rule="evenodd" d="M21.6797 0.820272C21.9501 0.792608 22.1454 0.896772 22.2656 1.13277C22.3178 2.25256 22.3178 3.37236 22.2656 4.49215C22.2064 4.6804 22.0762 4.75852 21.875 4.72652C21.6667 4.75256 21.5104 4.67444 21.4063 4.49215C21.3542 3.37236 21.3542 2.25256 21.4063 1.13277C21.4602 0.988225 21.5513 0.884053 21.6797 0.820272Z" fill="#CF3085"/>
<path opacity="0.877" fill-rule="evenodd" clip-rule="evenodd" d="M14.7264 2.69535C15.0884 2.61396 15.3357 2.74417 15.4686 3.08598C15.9374 3.91932 16.4061 4.75264 16.8749 5.58598C16.9452 5.94003 16.8019 6.14836 16.4452 6.21098C16.2736 6.18378 16.1303 6.10566 16.0155 5.9766C15.5207 5.09119 15.0259 4.20577 14.5311 3.32035C14.4544 3.06452 14.5195 2.85618 14.7264 2.69535Z" fill="#CF3085"/>
<path opacity="0.873" fill-rule="evenodd" clip-rule="evenodd" d="M28.4765 2.6954C29.0363 2.61701 29.2576 2.85138 29.1406 3.39852C28.6101 4.34249 28.0503 5.26697 27.4609 6.17196C26.9686 6.27204 26.7472 6.07673 26.7968 5.58602C27.3576 4.62034 27.9176 3.65679 28.4765 2.6954Z" fill="#CF3085"/>
<path opacity="0.956" fill-rule="evenodd" clip-rule="evenodd" d="M21.7576 7.38281C22.0242 7.42291 22.2846 7.48802 22.5389 7.57812C23.0686 8.18641 23.6675 8.70727 24.3357 9.14062C25.0852 9.23867 25.8404 9.2907 26.6014 9.29688C27.0702 9.40125 27.3957 9.67469 27.5779 10.1172C27.6039 10.6901 27.63 11.263 27.6561 11.8359C27.6699 12.3725 27.8521 12.8413 28.2029 13.2422C28.5936 13.6328 28.9842 14.0234 29.3748 14.4141C29.6306 14.9205 29.6046 15.4153 29.2967 15.8984C28.7441 16.3986 28.2493 16.9455 27.8123 17.5391C27.7314 17.7932 27.6793 18.0536 27.6561 18.3203C27.63 18.9193 27.6039 19.5182 27.5779 20.1172C27.4293 20.5 27.1559 20.7474 26.7576 20.8594C26.0805 20.8854 25.4035 20.9115 24.7264 20.9375C24.4535 21.0111 24.1931 21.1152 23.9451 21.25C23.5285 21.6666 23.1118 22.0834 22.6951 22.5C22.1261 22.8637 21.5532 22.8637 20.9764 22.5C20.4726 21.9176 19.8996 21.4228 19.2576 21.0156C18.481 20.9196 17.6997 20.8675 16.9139 20.8594C16.5156 20.7474 16.2421 20.5 16.0936 20.1172C16.0675 19.4922 16.0414 18.8672 16.0154 18.2422C15.99 17.8792 15.8857 17.5407 15.7029 17.2266C15.2863 16.8099 14.8696 16.3932 14.4529 15.9766C14.1253 15.4455 14.0993 14.8987 14.3748 14.3359C14.9572 13.8322 15.452 13.2592 15.8592 12.6172C15.9364 12.3887 15.9884 12.1544 16.0154 11.9141C16.0414 11.3151 16.0675 10.7162 16.0936 10.1172C16.2757 9.67469 16.6013 9.40125 17.0701 9.29688C17.8311 9.2907 18.5863 9.23867 19.3357 9.14062C19.9778 8.73344 20.5507 8.23867 21.0545 7.65625C21.2857 7.53091 21.52 7.43977 21.7576 7.38281ZM21.0545 10.1953C23.6488 10.0202 25.4586 11.114 26.4842 13.4766C27.1584 15.9859 26.4162 17.952 24.2576 19.375C21.9133 20.491 19.843 20.1134 18.0467 18.2422C16.664 16.3587 16.5599 14.4055 17.7342 12.3828C18.5675 11.2309 19.6743 10.5018 21.0545 10.1953ZM21.6014 11.7578C21.885 11.7312 22.1454 11.7964 22.3826 11.9531C22.6737 12.3225 22.9341 12.7131 23.1639 13.125C23.5945 13.1793 24.0112 13.2834 24.4139 13.4375C24.865 13.7991 24.9561 14.2287 24.6873 14.7266C24.4529 14.9609 24.2186 15.1953 23.9842 15.4297C23.9936 15.9501 23.9936 16.4709 23.9842 16.9922C23.7246 17.4928 23.321 17.6621 22.7732 17.5C22.4696 17.3352 22.1571 17.192 21.8357 17.0703C20.0939 18.0098 19.4168 17.515 19.8045 15.5859C19.4905 15.259 19.191 14.9205 18.9061 14.5703C18.7439 14.0226 18.9132 13.619 19.4139 13.3594C19.8073 13.279 20.1979 13.1879 20.5857 13.0859C20.7749 12.7859 20.9442 12.4734 21.0936 12.1484C21.2471 11.9883 21.4164 11.858 21.6014 11.7578Z" fill="#CF3085"/>
<path opacity="0.884" fill-rule="evenodd" clip-rule="evenodd" d="M9.64863 7.77324C9.80699 7.76057 9.96324 7.77359 10.1174 7.8123C11.0611 8.31652 11.9855 8.85043 12.8908 9.41386C13.034 9.9998 12.8127 10.2211 12.2268 10.0779C11.3674 9.58316 10.508 9.08832 9.64863 8.59355C9.34434 8.32097 9.34434 8.04754 9.64863 7.77324Z" fill="#CF3085"/>
<path opacity="0.879" fill-rule="evenodd" clip-rule="evenodd" d="M33.5548 7.77327C34.0753 7.68207 34.2967 7.89038 34.2189 8.39827C33.3355 9.02022 32.411 9.58014 31.4454 10.078C30.7646 10.1917 30.5822 9.94429 30.8985 9.33577C31.7889 8.81288 32.6743 8.29202 33.5548 7.77327Z" fill="#CF3085"/>
<path opacity="0.931" fill-rule="evenodd" clip-rule="evenodd" d="M21.6018 10.8984C23.9141 10.9588 25.3594 12.1047 25.9377 14.3359C26.1673 16.9654 25.0085 18.593 22.4611 19.2188C19.9448 19.3837 18.3693 18.2509 17.7346 15.8203C17.5588 13.0155 18.8479 11.3749 21.6018 10.8984ZM21.6018 11.7578C21.4168 11.858 21.2475 11.9883 21.0939 12.1484C20.9446 12.4734 20.7753 12.7859 20.5861 13.0859C20.1983 13.1879 19.8077 13.279 19.4143 13.3594C18.9136 13.619 18.7443 14.0226 18.9064 14.5703C19.1914 14.9205 19.4909 15.259 19.8049 15.5859C19.4171 17.515 20.0943 18.0098 21.8361 17.0703C22.1575 17.192 22.47 17.3352 22.7736 17.5C23.3214 17.6621 23.725 17.4928 23.9846 16.9922C23.9939 16.4709 23.9939 15.9501 23.9846 15.4297C24.2189 15.1953 24.4533 14.9609 24.6877 14.7266C24.9565 14.2287 24.8654 13.7991 24.4143 13.4375C24.0116 13.2834 23.5949 13.1793 23.1643 13.125C22.9345 12.7131 22.6741 12.3225 22.383 11.9531C22.1458 11.7964 21.8854 11.7312 21.6018 11.7578Z" fill="#FCD2E2"/>
<path opacity="0.929" fill-rule="evenodd" clip-rule="evenodd" d="M21.6797 12.539C21.7952 12.5185 21.8993 12.5445 21.9922 12.6171C22.1907 12.9751 22.399 13.3266 22.6172 13.6718C23.0855 13.8643 23.5673 14.0076 24.0625 14.1015C24.1146 14.1796 24.1146 14.2577 24.0625 14.3359C23.7173 14.6286 23.4309 14.9671 23.2031 15.3515C23.1649 15.7738 23.204 16.1905 23.3203 16.6015C23.324 16.7187 23.272 16.7968 23.1641 16.8359C22.7298 16.6317 22.2872 16.4495 21.8359 16.289C21.3931 16.4388 20.9634 16.621 20.5469 16.8359C20.4555 16.7961 20.3905 16.731 20.3516 16.6405C20.4807 16.1949 20.5198 15.7392 20.4688 15.2734C20.1682 14.9209 19.8687 14.5694 19.5703 14.2187C19.5816 14.1584 19.6077 14.1063 19.6484 14.0624C20.1024 13.9998 20.5452 13.8957 20.9766 13.7499C21.2932 13.3941 21.5276 12.9905 21.6797 12.539Z" fill="#FCD2E2"/>
<path opacity="0.873" fill-rule="evenodd" clip-rule="evenodd" d="M7.85159 14.6484C8.99769 14.6354 10.1435 14.6484 11.2891 14.6875C11.5496 14.8968 11.5887 15.1442 11.4063 15.4297C11.3229 15.4837 11.2317 15.5227 11.1328 15.5469C10.0912 15.599 9.04948 15.599 8.00784 15.5469C7.63925 15.4337 7.52206 15.1863 7.65628 14.8047C7.73399 14.7605 7.79909 14.7084 7.85159 14.6484Z" fill="#CF3085"/>
<path opacity="0.874" fill-rule="evenodd" clip-rule="evenodd" d="M32.3828 14.6484C33.555 14.6354 34.7269 14.6484 35.8985 14.6875C36.053 14.8826 36.0921 15.104 36.0157 15.3516C35.9242 15.4604 35.807 15.5256 35.6641 15.5469C34.6225 15.599 33.5807 15.599 32.5391 15.5469C32.0828 15.3228 32.0308 15.0234 32.3828 14.6484Z" fill="#CF3085"/>
<path opacity="0.875" fill-rule="evenodd" clip-rule="evenodd" d="M12.3047 20.0389C12.8252 19.9996 13.0205 20.234 12.8906 20.742C11.9723 21.3512 11.0217 21.9111 10.0391 22.4217C9.685 22.492 9.47672 22.3487 9.41406 21.992C9.43437 21.8602 9.48648 21.743 9.57031 21.6405C10.4867 21.1045 11.3981 20.5707 12.3047 20.0389Z" fill="#CF3085"/>
<path opacity="0.877" fill-rule="evenodd" clip-rule="evenodd" d="M30.9765 20.0391C31.2899 20.0392 31.5764 20.1303 31.8359 20.3125C32.5911 20.7552 33.3463 21.1979 34.1015 21.6406C34.2879 21.8521 34.3009 22.0734 34.1406 22.3047C33.9911 22.4365 33.8218 22.4755 33.6328 22.4219C32.7086 21.9208 31.7971 21.4 30.8984 20.8594C30.6805 20.5645 30.7066 20.291 30.9765 20.0391Z" fill="#CF3085"/>
<path opacity="0.94" fill-rule="evenodd" clip-rule="evenodd" d="M15.5859 20.8203C15.9076 21.1249 16.2722 21.3723 16.6796 21.5625C17.457 21.6561 18.2383 21.7082 19.0234 21.7188C19.5908 22.1297 20.1116 22.5984 20.5859 23.125C19.7265 23.9844 18.8671 24.8438 18.0077 25.7031C17.9036 25.7552 17.7994 25.7552 17.6952 25.7031C17.6524 24.701 17.5873 23.6984 17.4999 22.6953C17.4609 22.6562 17.4218 22.6172 17.3827 22.5781C16.4192 22.5521 15.4556 22.526 14.4921 22.5C14.2985 22.3486 14.2855 22.1793 14.453 21.9922C14.8466 21.6118 15.2241 21.2212 15.5859 20.8203Z" fill="#CF3085"/>
<path opacity="0.922" fill-rule="evenodd" clip-rule="evenodd" d="M28.0078 20.8203C28.4477 21.2211 28.8774 21.6378 29.2969 22.0703C29.3613 22.2423 29.3223 22.3855 29.1797 22.5C28.2162 22.526 27.2526 22.5521 26.2891 22.5781C26.25 22.6172 26.2109 22.6562 26.1719 22.6953C26.1459 23.6588 26.1198 24.6224 26.0938 25.5859C25.9792 25.7285 25.836 25.7676 25.6641 25.7031C24.8047 24.8438 23.9453 23.9844 23.0859 23.125C23.5602 22.5984 24.081 22.1297 24.6484 21.7188C25.4335 21.7082 26.2148 21.6561 26.9922 21.5625C27.3915 21.3898 27.73 21.1424 28.0078 20.8203Z" fill="#CF3085"/>
<path opacity="0.972" fill-rule="evenodd" clip-rule="evenodd" d="M30.8984 24.1797C31.7102 24.0176 32.4002 24.2258 32.9688 24.8047C32.9958 24.9389 33.0348 25.0691 33.0859 25.1953C33.0348 25.3215 32.9958 25.4517 32.9688 25.5859C30.4269 27.8936 27.8618 30.1723 25.2734 32.4219C24.4131 33.1383 23.4236 33.5549 22.3047 33.6719C20.1666 33.676 18.0311 33.7281 15.8984 33.8281C14.5152 34.09 13.3173 34.7019 12.3047 35.6641C10.612 34.0234 8.94531 32.3568 7.30469 30.6641C8.31695 29.5081 9.4368 28.4794 10.6641 27.5781C12.2212 26.7512 13.8619 26.5168 15.5859 26.875C16.2839 27.099 16.987 27.3073 17.6953 27.5C19.3132 27.5046 20.9278 27.5567 22.5391 27.6562C23.4539 28.0153 23.8576 28.6794 23.75 29.6484C23.6588 29.8437 23.5156 29.9869 23.3203 30.0781C20.8724 30.1041 18.4245 30.1302 15.9766 30.1562C15.67 30.3764 15.67 30.6108 15.9766 30.8594C18.5063 30.9352 21.0323 30.9091 23.5547 30.7812C24.1138 30.5078 24.4783 30.0651 24.6484 29.4531C26.5466 27.8416 28.4216 26.201 30.2734 24.5312C30.4993 24.4317 30.7077 24.3145 30.8984 24.1797Z" fill="#CF3085"/>
<path opacity="0.963" fill-rule="evenodd" clip-rule="evenodd" d="M5.97656 30.5859C8.1325 32.6116 10.2419 34.6949 12.3047 36.8359C11.5766 37.603 10.8345 38.3583 10.0781 39.1016C8.02086 37.0443 5.96354 34.987 3.90625 32.9297C3.85417 32.8516 3.85417 32.7734 3.90625 32.6953C4.61216 32.0025 5.30227 31.2994 5.97656 30.5859Z" fill="#CF3085"/>
</svg>
