<svg width="30" height="30" viewBox="0 0 30 30" fill="none" xmlns="http://www.w3.org/2000/svg">
<path d="M0.566673 13.2267C0.637229 13.2271 0.637229 13.2271 0.70921 13.2275C0.759169 13.2273 0.809129 13.2271 0.860603 13.227C1.02985 13.2265 1.19909 13.227 1.36834 13.2274C1.49017 13.2272 1.612 13.227 1.73383 13.2268C2.07004 13.2263 2.40625 13.2266 2.74246 13.2269C3.10449 13.2272 3.46652 13.2268 3.82855 13.2265C4.49726 13.226 5.16597 13.226 5.83468 13.2263C6.45236 13.2266 7.07004 13.2267 7.68772 13.2266C7.72864 13.2265 7.76955 13.2265 7.81171 13.2265C7.97778 13.2265 8.14386 13.2265 8.30993 13.2264C9.86897 13.2261 11.428 13.2264 12.9871 13.227C14.3733 13.2276 15.7595 13.2275 17.1457 13.227C18.7018 13.2263 20.2579 13.2261 21.814 13.2264C21.9798 13.2265 22.1456 13.2265 22.3114 13.2266C22.3726 13.2266 22.3726 13.2266 22.4351 13.2266C23.0525 13.2267 23.6699 13.2266 24.2873 13.2263C24.9891 13.2259 25.6908 13.226 26.3926 13.2266C26.751 13.227 27.1094 13.2271 27.4678 13.2267C27.7954 13.2263 28.123 13.2265 28.4505 13.2272C28.5695 13.2273 28.6885 13.2272 28.8075 13.2269C28.9683 13.2266 29.1291 13.2269 29.2899 13.2275C29.3369 13.2272 29.3839 13.2269 29.4324 13.2267C29.7518 13.2289 29.7518 13.2289 29.8824 13.3594C29.897 13.473 29.897 13.473 29.8971 13.6151C29.8974 13.6691 29.8977 13.7232 29.898 13.7789C29.8978 13.8386 29.8975 13.8984 29.8972 13.96C29.8974 14.0232 29.8976 14.0864 29.8978 14.1515C29.8983 14.3646 29.8979 14.5777 29.8975 14.7909C29.8977 14.9431 29.8979 15.0953 29.8981 15.2475C29.8987 15.6189 29.8986 15.9903 29.8982 16.3617C29.8979 16.6634 29.8979 16.9652 29.898 17.2669C29.8981 17.3098 29.8981 17.3527 29.8981 17.3969C29.8981 17.484 29.8982 17.5711 29.8982 17.6582C29.8985 18.4757 29.8982 19.2932 29.8975 20.1107C29.897 20.8127 29.8971 21.5148 29.8976 22.2168C29.8983 23.0313 29.8985 23.8458 29.8981 24.6603C29.8981 24.7471 29.8981 24.8339 29.898 24.9207C29.898 24.9634 29.898 25.0061 29.898 25.0501C29.8979 25.3516 29.8981 25.6531 29.8983 25.9546C29.8987 26.3601 29.8984 26.7656 29.8978 27.1712C29.8976 27.3204 29.8976 27.4696 29.8979 27.6189C29.8982 27.8218 29.8978 28.0247 29.8972 28.2276C29.8975 28.2874 29.8978 28.3472 29.898 28.4087C29.8977 28.4628 29.8974 28.5168 29.8971 28.5725C29.8971 28.6194 29.8971 28.6663 29.897 28.7146C29.8824 28.8282 29.8824 28.8282 29.7652 28.9454C29.6048 28.9569 29.4503 28.961 29.2899 28.9601C29.2399 28.9603 29.19 28.9605 29.1385 28.9606C28.9692 28.9611 28.8 28.9606 28.6307 28.9602C28.5089 28.9604 28.3871 28.9606 28.2653 28.9608C27.929 28.9613 27.5928 28.961 27.2566 28.9607C26.8946 28.9604 26.5326 28.9608 26.1705 28.9611C25.5018 28.9616 24.8331 28.9616 24.1644 28.9613C23.5467 28.961 22.929 28.9609 22.3114 28.961C22.2704 28.9611 22.2295 28.9611 22.1874 28.9611C22.0213 28.9611 21.8552 28.9611 21.6892 28.9612C20.1301 28.9615 18.5711 28.9612 17.012 28.9606C15.6258 28.96 14.2396 28.9601 12.8534 28.9606C11.2973 28.9613 9.74118 28.9615 8.18506 28.9612C8.01928 28.9611 7.8535 28.9611 7.68772 28.961C7.62649 28.961 7.62649 28.961 7.56402 28.961C6.94661 28.9609 6.3292 28.961 5.71179 28.9613C5.01002 28.9617 4.30825 28.9616 3.60648 28.9609C3.24809 28.9606 2.8897 28.9605 2.5313 28.9609C2.20372 28.9613 1.87613 28.9611 1.54855 28.9604C1.42955 28.9603 1.31055 28.9604 1.19155 28.9607C1.03077 28.961 0.869996 28.9607 0.70921 28.9601C0.638654 28.9605 0.638654 28.9605 0.566673 28.9609C0.247294 28.9587 0.247294 28.9587 0.116729 28.8282C0.10204 28.7146 0.10204 28.7146 0.101982 28.5725C0.101677 28.5185 0.101371 28.4644 0.101056 28.4087C0.101318 28.349 0.101579 28.2892 0.101848 28.2276C0.101666 28.1644 0.101483 28.1012 0.101294 28.0361C0.100824 27.823 0.101198 27.6099 0.101566 27.3967C0.101407 27.2445 0.101199 27.0923 0.100944 26.9401C0.100421 26.5687 0.100536 26.1973 0.100875 25.8259C0.101139 25.5242 0.101175 25.2224 0.101048 24.9207C0.10103 24.8778 0.101012 24.8349 0.100993 24.7907C0.100956 24.7036 0.100918 24.6165 0.100879 24.5294C0.100545 23.7119 0.10093 22.8944 0.101559 22.0769C0.102083 21.3749 0.101992 20.6728 0.101451 19.9708C0.100825 19.1563 0.100577 18.3418 0.100937 17.5273C0.100975 17.4405 0.101011 17.3537 0.101048 17.2669C0.101075 17.2029 0.101075 17.2029 0.101103 17.1375C0.101204 16.836 0.101033 16.5345 0.100757 16.233C0.100395 15.8275 0.100651 15.422 0.101331 15.0164C0.101486 14.8672 0.10144 14.718 0.101183 14.5687C0.100865 14.3658 0.101261 14.1629 0.101848 13.96C0.101587 13.9002 0.101326 13.8404 0.101056 13.7789C0.101362 13.7248 0.101667 13.6708 0.101982 13.6151C0.102001 13.5682 0.10202 13.5213 0.10204 13.473C0.137554 13.1984 0.337372 13.2282 0.566673 13.2267ZM0.819854 13.9454C0.819854 14.3321 0.819854 14.7188 0.819854 15.1172C10.1784 15.1172 19.537 15.1172 29.1792 15.1172C29.1792 14.7305 29.1792 14.3438 29.1792 13.9454C19.8206 13.9454 10.462 13.9454 0.819854 13.9454ZM0.819854 15.8204C0.819854 16.8258 0.819854 17.8313 0.819854 18.8672C1.12923 18.9639 1.4386 19.0606 1.75735 19.1602C2.17483 19.4056 2.17483 19.4056 2.35107 19.5253C2.82751 19.8193 3.34376 19.8457 3.88046 19.734C4.24054 19.6308 4.55258 19.4466 4.86282 19.2408C5.30373 18.9603 5.7807 18.8941 6.29471 18.9002C6.37596 18.9011 6.37596 18.9011 6.45886 18.9019C7.02713 18.9167 7.41597 19.0758 7.90043 19.3595C8.49177 19.7048 8.99425 19.8915 9.68765 19.7361C10.0022 19.638 10.2803 19.4805 10.5645 19.3165C10.6081 19.2915 10.6517 19.2665 10.6966 19.2408C10.7341 19.2183 10.7716 19.1958 10.8103 19.1726C11.2231 18.9723 11.6013 18.8945 12.0589 18.9002C12.1104 18.9008 12.1619 18.9013 12.215 18.9019C12.8958 18.9204 13.402 19.1655 13.9783 19.5067C14.4767 19.8018 15.0757 19.838 15.6395 19.7061C15.9477 19.5878 16.2244 19.4153 16.5042 19.2417C17.1481 18.8558 17.8979 18.8575 18.6269 18.9467C18.9943 19.0404 19.3218 19.2478 19.6457 19.44C20.2026 19.7694 20.8005 19.8536 21.4357 19.7079C21.7108 19.6039 21.9548 19.4538 22.2066 19.303C22.9284 18.8783 23.6987 18.8164 24.5213 18.9622C24.9202 19.0817 25.2601 19.2945 25.6046 19.5232C26.0945 19.8172 26.602 19.8449 27.1504 19.7299C27.4293 19.6531 27.6621 19.5257 27.9032 19.368C28.3434 19.0846 28.6265 19.0252 29.1792 18.8672C29.1792 17.8618 29.1792 16.8563 29.1792 15.8204C19.8206 15.8204 10.462 15.8204 0.819854 15.8204ZM4.93973 20.0407C4.19865 20.482 3.41181 20.5658 2.5621 20.4154C2.18676 20.2887 1.84102 20.0725 1.50277 19.8684C1.46495 19.8459 1.42713 19.8235 1.38817 19.8004C1.33817 19.7699 1.33817 19.7699 1.28716 19.7389C1.13793 19.6669 1.13793 19.6669 0.819854 19.629C0.819854 22.4713 0.819854 25.3137 0.819854 28.2422C10.1784 28.2422 19.537 28.2422 29.1792 28.2422C29.1792 25.3999 29.1792 22.5575 29.1792 19.629C28.7989 19.7128 28.7989 19.7128 28.4802 19.8668C28.4425 19.8893 28.4047 19.9119 28.3658 19.9351C28.3273 19.9585 28.2888 19.982 28.2491 20.0062C27.4771 20.4512 26.7132 20.5828 25.825 20.4129C25.4749 20.2958 25.1548 20.1021 24.84 19.9113C24.3026 19.5874 23.789 19.5176 23.1807 19.6452C22.899 19.7228 22.6657 19.8542 22.4197 20.0091C21.7012 20.4594 20.9314 20.5828 20.0913 20.4264C19.6482 20.3137 19.2672 20.0985 18.896 19.837C18.4316 19.5489 17.9102 19.5327 17.3886 19.6409C17.0524 19.7375 16.755 19.8981 16.4717 20.1014C15.7928 20.5223 14.976 20.5534 14.2046 20.4106C13.8357 20.2995 13.5362 20.1128 13.2179 19.8993C12.7158 19.5869 12.1608 19.5233 11.5894 19.6411C11.2283 19.7433 10.9158 19.9281 10.605 20.1343C10.1641 20.4148 9.68717 20.4809 9.17313 20.4749C9.11917 20.4744 9.06521 20.4739 9.00962 20.4734C8.36554 20.4574 7.9461 20.2507 7.41486 19.8993C6.58174 19.3732 5.73695 19.5571 4.93973 20.0407Z" fill="#CF3085"/>
<path d="M13.5804 1.04067C13.6456 1.03981 13.6456 1.03981 13.7122 1.03892C15.2516 1.0227 16.628 1.21388 18.1114 1.64241C18.475 1.74733 18.84 1.84236 19.2082 1.92988C19.2564 1.94155 19.3046 1.95321 19.3542 1.96523C20.4752 2.22841 21.6731 2.17421 22.7934 1.93354C22.8675 1.91791 22.9417 1.90227 23.0181 1.88616C23.6762 1.7283 24.3713 1.48648 24.9492 1.12925C25.1578 1.00892 25.31 1.03519 25.5473 1.05464C25.6842 1.19157 25.6822 1.21995 25.6839 1.40597C25.6761 1.72491 25.5842 1.99327 25.4704 2.28877C25.4495 2.34412 25.4287 2.39947 25.4073 2.4565C24.7628 4.13474 23.9151 5.72555 22.7348 7.08979C22.6955 7.13556 22.6562 7.18134 22.6157 7.2285C22.4823 7.38032 22.3458 7.52844 22.2074 7.67573C22.1768 7.70837 22.1461 7.74101 22.1146 7.77464C21.3277 8.6055 20.4588 9.29507 19.4535 9.8437C19.3984 9.87391 19.3984 9.87391 19.3422 9.90473C17.7582 10.7612 16.0237 11.1593 14.2277 11.1547C14.156 11.1547 14.156 11.1547 14.0829 11.1546C13.3718 11.1525 12.692 11.1269 12.0121 10.8984C11.9734 10.8855 11.9348 10.8726 11.8949 10.8594C10.4483 10.3604 9.21673 9.4558 8.49648 8.08589C8.24813 7.5361 8.06049 6.99373 8.08633 6.38667C8.02956 6.37579 8.02956 6.37579 7.97166 6.3647C6.99885 6.15177 6.1029 5.69809 5.27383 5.1562C5.22951 5.12744 5.18519 5.09868 5.13953 5.06905C5.00566 4.98062 4.87404 4.88962 4.74282 4.79731C4.70194 4.76999 4.66107 4.74267 4.61895 4.71451C4.35206 4.51902 4.35206 4.51902 4.30729 4.33137C4.3036 4.20451 4.3036 4.20451 4.33633 3.98432C4.45351 3.86714 4.45351 3.86714 4.65127 3.82685C4.98074 3.83513 5.18371 4.04636 5.43107 4.24388C6.20676 4.85823 7.14918 5.26881 8.08633 5.56636C8.09071 5.5258 8.09509 5.48523 8.0996 5.44345C8.26885 4.18401 8.98331 3.10838 9.97041 2.32635C10.9949 1.55373 12.2905 1.05474 13.5804 1.04067ZM10.1957 3.16401C10.1532 3.19989 10.1107 3.23577 10.0668 3.27273C9.40518 3.88239 8.9036 4.79766 8.85056 5.69934C8.84932 5.74953 8.84932 5.74953 8.84804 5.80073C9.964 6.12202 11.1442 6.30046 12.3051 6.32807C12.366 6.32987 12.366 6.32987 12.4282 6.33171C14.4496 6.38581 16.456 6.05236 18.3606 5.37783C18.58 5.31311 18.7578 5.31057 18.9848 5.33198C19.0434 5.39057 19.0434 5.39057 19.0491 5.49884C19.0472 5.619 19.0453 5.73916 19.0434 5.85932C17.3123 6.69968 15.2052 6.9693 13.3012 7.0312C13.2409 7.03325 13.2409 7.03325 13.1793 7.03535C12.0043 7.06964 10.8354 6.94231 9.68095 6.73251C9.404 6.68249 9.12806 6.64884 8.84804 6.62104C9.00423 7.43321 9.35065 8.11613 9.90273 8.73042C9.93242 8.76554 9.9621 8.80066 9.99268 8.83685C10.9534 9.89585 12.4749 10.3394 13.8568 10.4237C16.4745 10.5298 18.9575 9.5468 20.9184 7.85151C20.9758 7.80234 21.0333 7.75317 21.0925 7.70251C21.3483 7.4784 21.5857 7.24767 21.8041 6.98702C21.8856 6.8898 21.9693 6.79438 22.0541 6.70001C22.9384 5.70669 23.6165 4.54083 24.1923 3.34712C24.2139 3.30254 24.2356 3.25797 24.2579 3.21205C24.4088 2.89177 24.5163 2.56775 24.6098 2.22651C24.4271 2.26055 24.2535 2.30179 24.0776 2.36155C22.017 3.04646 20.0294 2.99591 17.9573 2.39314C17.0681 2.13602 16.1598 1.89193 15.2348 1.81636C15.1895 1.81251 15.1443 1.80867 15.0977 1.80471C13.2903 1.65935 11.6095 1.97063 10.1957 3.16401Z" fill="#CF3085"/>
<path d="M4.77568 23.8028C4.98579 23.9516 5.13661 24.0983 5.27326 24.3164C5.29728 24.3528 5.3213 24.3892 5.34605 24.4267C5.57152 24.8357 5.58091 25.3277 5.50764 25.7812C5.36696 26.2251 5.14359 26.5867 4.74592 26.8359C4.70952 26.8599 4.67311 26.8839 4.6356 26.9087C4.22664 27.1342 3.73457 27.1435 3.28108 27.0703C2.83716 26.9296 2.47555 26.7062 2.22639 26.3086C2.20237 26.2722 2.17835 26.2357 2.15361 26.1982C1.92813 25.7893 1.91874 25.2972 1.99201 24.8437C2.1327 24.3998 2.35606 24.0382 2.75373 23.789C2.79014 23.765 2.82655 23.741 2.86405 23.7162C3.45991 23.3877 4.20605 23.4724 4.77568 23.8028ZM2.81233 24.7961C2.70578 25.0958 2.69279 25.4269 2.79631 25.7302C2.9486 26.0168 3.15035 26.2064 3.45686 26.3086C3.86028 26.3516 4.1251 26.3168 4.45295 26.0742C4.72379 25.782 4.7639 25.5523 4.75828 25.166C4.73349 24.8721 4.61007 24.692 4.39436 24.5031C3.81303 24.0792 3.24922 24.3183 2.81233 24.7961Z" fill="#CF3085"/>
<path d="M18.3694 20.9903C18.5795 21.1391 18.7304 21.2858 18.867 21.5039C18.891 21.5403 18.9151 21.5767 18.9398 21.6142C19.1653 22.0232 19.1747 22.5152 19.1014 22.9687C18.9607 23.4126 18.7373 23.7742 18.3397 24.0234C18.3033 24.0474 18.2669 24.0714 18.2294 24.0962C17.8204 24.3217 17.3283 24.331 16.8748 24.2578C16.4309 24.1171 16.0693 23.8937 15.8201 23.4961C15.7961 23.4597 15.7721 23.4232 15.7474 23.3857C15.5219 22.9768 15.5125 22.4847 15.5858 22.0312C15.7264 21.5873 15.9498 21.2257 16.3475 20.9765C16.3839 20.9525 16.4203 20.9285 16.4578 20.9037C17.0537 20.5752 17.7998 20.6599 18.3694 20.9903ZM16.4061 21.9836C16.2995 22.2833 16.2865 22.6144 16.3901 22.9177C16.5423 23.2043 16.7441 23.3939 17.0506 23.4961C17.454 23.5391 17.7188 23.5043 18.0467 23.2617C18.3175 22.9695 18.3576 22.7398 18.352 22.3535C18.3272 22.0596 18.2038 21.8795 17.9881 21.6906C17.4068 21.2667 16.843 21.5058 16.4061 21.9836Z" fill="#CF3085"/>
<path d="M23.1409 24.5801C23.4096 24.7995 23.6774 25.0362 23.7891 25.3711C23.8279 25.8073 23.8571 26.204 23.5838 26.5657C23.3384 26.8303 23.0923 27.049 22.7243 27.0921C22.2772 27.1004 21.9574 27.0893 21.6211 26.7774C21.3218 26.4765 21.193 26.2286 21.1816 25.8033C21.1891 25.3819 21.2776 25.0985 21.5625 24.7852C21.967 24.4204 22.6489 24.3325 23.1409 24.5801ZM21.9727 25.5469C21.9317 25.7133 21.9317 25.8493 21.9727 26.0157C22.0892 26.1905 22.171 26.2854 22.3792 26.3366C22.609 26.3531 22.7151 26.3215 22.9102 26.1914C23.0402 25.9964 23.0718 25.8903 23.0553 25.6604C23.0041 25.4523 22.9092 25.3705 22.7344 25.2539C22.3936 25.1701 22.1714 25.2488 21.9727 25.5469Z" fill="#CF3085"/>
<path d="M12.9026 25.003C13.1862 25.156 13.3752 25.3599 13.4766 25.6641C13.5156 26.1008 13.5144 26.4243 13.2422 26.7773C12.9258 27.0706 12.6651 27.0908 12.2471 27.0868C11.9223 27.0565 11.7431 26.9253 11.5211 26.6858C11.3125 26.3729 11.3334 26.0274 11.3672 25.6641C11.461 25.3768 11.6454 25.1856 11.8946 25.0195C12.2083 24.915 12.5858 24.8997 12.9026 25.003ZM12.129 25.8398C12.1094 26.0156 12.1094 26.0156 12.129 26.1914C12.2394 26.3271 12.2394 26.3271 12.4219 26.3232C12.6045 26.3271 12.6045 26.3271 12.7149 26.1914C12.7344 26.0156 12.7344 26.0156 12.7149 25.8398C12.6045 25.7042 12.6045 25.7042 12.4219 25.708C12.2394 25.7042 12.2394 25.7042 12.129 25.8398Z" fill="#CF3085"/>
<path d="M27.4338 22.1905C27.7175 22.3435 27.9065 22.5474 28.0079 22.8516C28.0468 23.2883 28.0456 23.6118 27.7735 23.9648C27.4571 24.2581 27.1964 24.2783 26.7783 24.2743C26.4535 24.244 26.2743 24.1128 26.0523 23.8733C25.8437 23.5604 25.8646 23.2149 25.8985 22.8516C25.9922 22.5643 26.1767 22.3731 26.4258 22.207C26.7396 22.1025 27.117 22.0872 27.4338 22.1905ZM26.6602 23.0273C26.6407 23.2031 26.6407 23.2031 26.6602 23.3789C26.7707 23.5146 26.7707 23.5146 26.9532 23.5107C27.1357 23.5146 27.1357 23.5146 27.2462 23.3789C27.2657 23.2031 27.2657 23.2031 27.2462 23.0273C27.1357 22.8917 27.1357 22.8917 26.9532 22.8955C26.7707 22.8917 26.7707 22.8917 26.6602 23.0273Z" fill="#CF3085"/>
<path d="M9.15259 21.7218C9.4362 21.8747 9.62523 22.0786 9.72662 22.3828C9.76557 22.8196 9.76438 23.1431 9.49225 23.4961C9.17584 23.7893 8.91514 23.8096 8.49707 23.8055C8.1723 23.7752 7.99305 23.6441 7.77106 23.4045C7.5625 23.0917 7.58336 22.7462 7.61725 22.3828C7.71095 22.0956 7.89541 21.9044 8.14459 21.7383C8.4583 21.6337 8.83579 21.6184 9.15259 21.7218ZM8.37897 22.5586C8.35943 22.7344 8.35943 22.7344 8.37897 22.9102C8.48941 23.0458 8.48941 23.0458 8.67193 23.042C8.85445 23.0458 8.85445 23.0458 8.9649 22.9102C8.98443 22.7344 8.98443 22.7344 8.9649 22.5586C8.85445 22.4229 8.85445 22.4229 8.67193 22.4268C8.48941 22.4229 8.48941 22.4229 8.37897 22.5586Z" fill="#CF3085"/>
<path d="M26.016 26.3672C26.4269 26.3216 26.4269 26.3216 26.6056 26.4624C26.6792 26.6489 26.6559 26.7622 26.602 26.9531C26.4657 27.0894 26.4352 27.0876 26.2504 27.0886C26.2093 27.0896 26.1682 27.0906 26.1259 27.0916C26.0897 27.0846 26.0534 27.0776 26.016 27.0703C25.8805 26.867 25.879 26.7817 25.8989 26.543C25.9375 26.485 25.9762 26.427 26.016 26.3672Z" fill="#CF3085"/>
<path d="M17.1098 26.3672C17.5206 26.3216 17.5206 26.3216 17.6994 26.4624C17.773 26.6489 17.7497 26.7622 17.6957 26.9531C17.5595 27.0894 17.5289 27.0876 17.3442 27.0886C17.3031 27.0896 17.262 27.0906 17.2197 27.0916C17.1834 27.0846 17.1472 27.0776 17.1098 27.0703C16.9743 26.867 16.9727 26.7817 16.9926 26.543C17.0313 26.485 17.07 26.427 17.1098 26.3672Z" fill="#CF3085"/>
<path d="M7.7348 25.8984C8.14561 25.8528 8.14561 25.8528 8.3244 25.9937C8.398 26.1801 8.37468 26.2935 8.32074 26.4844C8.18449 26.6206 8.15394 26.6189 7.96917 26.6199C7.92809 26.6209 7.887 26.6218 7.84466 26.6229C7.80841 26.6158 7.77215 26.6088 7.7348 26.6016C7.59925 26.3983 7.59771 26.313 7.61761 26.0742C7.65628 26.0162 7.69496 25.9582 7.7348 25.8984Z" fill="#CF3085"/>
<path d="M12.891 22.6172C13.3019 22.5716 13.3019 22.5716 13.4806 22.7124C13.5542 22.8989 13.5309 23.0122 13.477 23.2031C13.3407 23.3394 13.3102 23.3376 13.1254 23.3386C13.0843 23.3396 13.0432 23.3406 13.0009 23.3416C12.9647 23.3346 12.9284 23.3276 12.891 23.3203C12.7555 23.117 12.754 23.0317 12.7739 22.793C12.8125 22.735 12.8512 22.677 12.891 22.6172Z" fill="#CF3085"/>
<path d="M23.2035 21.6797C23.6144 21.6341 23.6144 21.6341 23.7931 21.7749C23.8667 21.9614 23.8434 22.0747 23.7895 22.2656C23.6532 22.4019 23.6227 22.4001 23.4379 22.4011C23.3968 22.4021 23.3557 22.4031 23.3134 22.4041C23.2772 22.3971 23.2409 22.3901 23.2035 22.3828C23.068 22.1795 23.0665 22.0942 23.0864 21.8555C23.125 21.7975 23.1637 21.7395 23.2035 21.6797Z" fill="#CF3085"/>
<path d="M3.0473 21.6797C3.45811 21.6341 3.45811 21.6341 3.6369 21.7749C3.7105 21.9614 3.68718 22.0747 3.63324 22.2656C3.49699 22.4019 3.46644 22.4001 3.28167 22.4011C3.24059 22.4021 3.1995 22.4031 3.15716 22.4041C3.12091 22.3971 3.08465 22.3901 3.0473 22.3828C2.91175 22.1795 2.91021 22.0942 2.93011 21.8555C2.96878 21.7975 3.00746 21.7395 3.0473 21.6797Z" fill="#CF3085"/>
</svg>
