<svg width="30" height="30" viewBox="0 0 30 30" fill="none" xmlns="http://www.w3.org/2000/svg">
<path d="M14.1929 0.0720556C13.2624 0.247877 12.4088 0.751898 11.9935 1.36727L11.732 1.74822H10.9553C10.5246 1.74822 9.994 1.77752 9.76329 1.80683C8.29443 2.01781 7.19471 2.9145 6.97938 4.06906C6.90248 4.46759 6.91017 4.5262 7.06398 4.76649C7.17933 4.94817 7.31776 5.05952 7.53309 5.14743C7.8407 5.26465 7.94837 5.26465 15.0004 5.26465C22.0524 5.26465 22.1601 5.26465 22.4677 5.14743C22.6831 5.05952 22.8215 4.94817 22.9368 4.76649C23.0906 4.5262 23.0983 4.46759 23.0214 4.06906C22.8061 2.9145 21.7064 2.01781 20.2375 1.80683C20.0068 1.77752 19.4762 1.74822 19.0455 1.74822H18.2688L18.0073 1.36727C17.3229 0.35337 15.6772 -0.209259 14.1929 0.0720556Z" fill="#CF3085"/>
<path d="M2.78006 3.57111C1.45732 3.77037 0.33453 4.63776 0.0807485 5.66924C-0.0269162 6.10294 -0.0269162 27.4008 0.0807485 27.8345C0.34222 28.8894 1.45732 29.7392 2.84158 29.9385C3.41066 30.0205 26.5893 30.0205 27.1584 29.9385C28.5427 29.7392 29.6578 28.8894 29.9193 27.8345C30.0269 27.4008 30.0269 6.10294 29.9193 5.66924C29.6578 4.61432 28.5427 3.76451 27.1584 3.56525C26.9277 3.53594 26.4201 3.50664 26.0203 3.50664H25.2974L25.3512 3.98722C25.3743 4.27439 25.3666 4.62018 25.3127 4.8253C25.0436 5.90953 23.9439 6.75934 22.5442 6.96446C21.9828 7.04651 8.01717 7.04651 7.45578 6.96446C6.05614 6.75934 4.95642 5.90953 4.68726 4.8253C4.63343 4.62018 4.62574 4.27439 4.64881 3.98722L4.70264 3.50664L3.91054 3.5125C3.47219 3.51836 2.96462 3.54181 2.78006 3.57111ZM23.6132 9.78347C23.9592 9.92998 24.2284 10.2699 24.2284 10.5512C24.2284 10.6743 24.1438 10.856 24.0054 11.0142C23.7208 11.3483 20.4217 13.8391 20.0987 13.9622C19.7834 14.0794 19.445 14.0794 19.1297 13.9622C18.799 13.8332 16.6534 12.2215 16.3766 11.8933C16.2381 11.7351 16.1535 11.5534 16.1535 11.4303C16.1535 10.9966 16.738 10.5395 17.2994 10.5395C17.6916 10.5395 17.9838 10.6919 18.8298 11.319L19.6142 11.9109L20.9446 10.9087C21.6675 10.3578 22.3904 9.84793 22.5365 9.78347C22.8826 9.62523 23.244 9.62523 23.6132 9.78347ZM12.0777 10.6567C12.4237 10.7915 12.6929 11.1256 12.6929 11.4186C12.6929 11.7116 12.4237 12.0457 12.0777 12.1805C11.7931 12.2919 11.6316 12.2977 9.23225 12.2977C6.83286 12.2977 6.67137 12.2919 6.38682 12.1805C6.04076 12.0457 5.7716 11.7116 5.7716 11.4186C5.7716 11.1373 6.04076 10.7915 6.37144 10.6626C6.6406 10.5512 6.81748 10.5454 9.21687 10.5395C11.6316 10.5395 11.7931 10.5454 12.0777 10.6567ZM23.6132 15.0581C23.9592 15.2046 24.2284 15.5445 24.2284 15.8259C24.2284 15.9489 24.1438 16.1306 24.0054 16.2889C23.7208 16.6229 20.4217 19.1137 20.0987 19.2368C19.7834 19.354 19.445 19.354 19.1297 19.2368C18.799 19.1079 16.6534 17.4962 16.3766 17.168C16.2381 17.0097 16.1535 16.828 16.1535 16.705C16.1535 16.2713 16.738 15.8141 17.2994 15.8141C17.6916 15.8141 17.9838 15.9665 18.8298 16.5936L19.6142 17.1855L20.9446 16.1834C21.6675 15.6325 22.3904 15.1226 22.5365 15.0581C22.8826 14.8999 23.244 14.8999 23.6132 15.0581ZM12.0777 16.8105C12.4237 16.9453 12.6929 17.2793 12.6929 17.5724C12.6929 17.8654 12.4237 18.1995 12.0777 18.3342C11.7931 18.4456 11.6316 18.4515 9.23225 18.4515C6.83286 18.4515 6.67137 18.4456 6.38682 18.3342C6.04076 18.1995 5.7716 17.8654 5.7716 17.5724C5.7716 17.291 6.04076 16.9453 6.37144 16.8163C6.6406 16.705 6.81748 16.6991 9.21687 16.6932C11.6316 16.6932 11.7931 16.6991 12.0777 16.8105ZM17.7916 21.1826C17.93 21.2353 18.3914 21.5459 18.8298 21.8683L19.6142 22.4602L20.4063 21.8683C21.2446 21.2412 21.5368 21.0888 21.929 21.0888C22.4827 21.0888 23.0749 21.5401 23.0749 21.962C23.0749 22.2609 22.8749 22.4836 22.052 23.1225L21.2753 23.7261L22.052 24.3239C22.8749 24.9686 23.0749 25.1913 23.0749 25.4902C23.0749 25.9122 22.4827 26.3634 21.929 26.3634C21.5368 26.3634 21.2446 26.211 20.4063 25.584L19.6142 24.992L18.8298 25.584C17.9838 26.211 17.6916 26.3634 17.2994 26.3634C16.7457 26.3634 16.1535 25.9122 16.1535 25.4902C16.1535 25.1913 16.3535 24.9686 17.1764 24.3239L17.9531 23.7261L17.1764 23.1225C16.3535 22.4836 16.1535 22.2609 16.1535 21.962C16.1535 21.5401 16.738 21.0946 17.2917 21.0888C17.4301 21.0888 17.6532 21.1298 17.7916 21.1826ZM12.0777 22.9642C12.4237 23.099 12.6929 23.4331 12.6929 23.7261C12.6929 24.0191 12.4237 24.3532 12.0777 24.488C11.7931 24.5994 11.6316 24.6052 9.23225 24.6052C6.83286 24.6052 6.67137 24.5994 6.38682 24.488C6.04076 24.3532 5.7716 24.0191 5.7716 23.7261C5.7716 23.4448 6.04076 23.099 6.37144 22.9701C6.6406 22.8587 6.81748 22.8529 9.21687 22.847C11.6316 22.847 11.7931 22.8529 12.0777 22.9642Z" fill="#CF3085"/>
</svg>
